<svg width="18" height="18" viewBox="0 0 18 18" fill="none" xmlns="http://www.w3.org/2000/svg">
<path d="M5.6665 9.83329H12.3332C12.5693 9.83329 12.7672 9.75343 12.9269 9.59371C13.0866 9.43399 13.1665 9.23607 13.1665 8.99996C13.1665 8.76385 13.0866 8.56593 12.9269 8.40621C12.7672 8.24649 12.5693 8.16663 12.3332 8.16663H5.6665C5.43039 8.16663 5.23248 8.24649 5.07275 8.40621C4.91303 8.56593 4.83317 8.76385 4.83317 8.99996C4.83317 9.23607 4.91303 9.43399 5.07275 9.59371C5.23248 9.75343 5.43039 9.83329 5.6665 9.83329ZM8.99984 17.3333C7.84706 17.3333 6.76373 17.1145 5.74984 16.677C4.73595 16.2395 3.854 15.6458 3.104 14.8958C2.354 14.1458 1.76025 13.2638 1.32275 12.25C0.885254 11.2361 0.666504 10.1527 0.666504 8.99996C0.666504 7.84718 0.885254 6.76385 1.32275 5.74996C1.76025 4.73607 2.354 3.85413 3.104 3.10413C3.854 2.35413 4.73595 1.76038 5.74984 1.32288C6.76373 0.885376 7.84706 0.666626 8.99984 0.666626C10.1526 0.666626 11.2359 0.885376 12.2498 1.32288C13.2637 1.76038 14.1457 2.35413 14.8957 3.10413C15.6457 3.85413 16.2394 4.73607 16.6769 5.74996C17.1144 6.76385 17.3332 7.84718 17.3332 8.99996C17.3332 10.1527 17.1144 11.2361 16.6769 12.25C16.2394 13.2638 15.6457 14.1458 14.8957 14.8958C14.1457 15.6458 13.2637 16.2395 12.2498 16.677C11.2359 17.1145 10.1526 17.3333 8.99984 17.3333ZM8.99984 15.6666C10.8609 15.6666 12.4373 15.0208 13.729 13.7291C15.0207 12.4375 15.6665 10.8611 15.6665 8.99996C15.6665 7.13885 15.0207 5.56246 13.729 4.27079C12.4373 2.97913 10.8609 2.33329 8.99984 2.33329C7.13873 2.33329 5.56234 2.97913 4.27067 4.27079C2.979 5.56246 2.33317 7.13885 2.33317 8.99996C2.33317 10.8611 2.979 12.4375 4.27067 13.7291C5.56234 15.0208 7.13873 15.6666 8.99984 15.6666Z" fill="#FF5555"/>
</svg>
