<svg width="250" height="250" viewBox="0 0 250 250" fill="none" xmlns="http://www.w3.org/2000/svg">
<path d="M225.46 123.875C203.54 74.69 128.155 33 82.71 39.4C62.94 42.19 35.66 60.255 22.825 95.54C14.39 118.74 -14.6 205.145 116.39 200.33C247.38 195.515 225.46 123.875 225.46 123.875Z" fill="#92E3A9"/>
<path opacity="0.7" d="M116.39 200.33C-14.61 205.145 14.39 118.74 22.825 95.54C35.66 60.25 62.94 42.19 82.71 39.4C98.895 37.115 118.875 40.935 138.89 49.02C145.912 51.868 152.758 55.1339 159.39 58.8C188.065 74.615 214.03 98.23 225.46 123.875C225.46 123.875 247.38 195.5 116.39 200.33Z" fill="white"/>
<path d="M127.92 223.86C172.252 223.86 208.19 218.969 208.19 212.935C208.19 206.901 172.252 202.01 127.92 202.01C83.588 202.01 47.6499 206.901 47.6499 212.935C47.6499 218.969 83.588 223.86 127.92 223.86Z" fill="#92E3A9"/>
<path opacity="0.5" d="M127.92 223.86C172.252 223.86 208.19 218.969 208.19 212.935C208.19 206.901 172.252 202.01 127.92 202.01C83.588 202.01 47.6499 206.901 47.6499 212.935C47.6499 218.969 83.588 223.86 127.92 223.86Z" fill="white"/>
<path d="M49.4599 180.025C49.4149 180.1 49.8049 180.465 48.5249 180.525C45.3649 180.665 39.7799 180.47 37.6749 177.605C34.6749 173.515 41.5749 173.87 40.8999 171.605C40.2249 169.34 32.8099 171.215 31.3499 167.995C29.8899 164.775 35.2899 165.385 35.0349 163.725C34.7799 162.065 29.1249 164.225 27.2499 160.815C25.3749 157.405 30.3249 159.215 29.5199 157.815C28.7149 156.415 22.4199 150.515 24.9599 149.19C27.4999 147.865 33.4149 154.015 35.3599 154.69C37.3049 155.365 37.7399 149.295 40.3049 151.31C42.8699 153.325 41.2149 162.455 44.1999 163.58C46.4249 164.415 45.1999 161.15 47.9449 161.27C51.6649 161.395 52.9299 174.185 49.4599 180.025Z" fill="#92E3A9"/>
<g opacity="0.1">
<path d="M49.4599 180.025C49.4149 180.1 49.8049 180.465 48.5249 180.525C45.3649 180.665 39.7799 180.47 37.6749 177.605C34.6749 173.515 41.5749 173.87 40.8999 171.605C40.2249 169.34 32.8099 171.215 31.3499 167.995C29.8899 164.775 35.2899 165.385 35.0349 163.725C34.7799 162.065 29.1249 164.225 27.2499 160.815C25.3749 157.405 30.3249 159.215 29.5199 157.815C28.7149 156.415 22.4199 150.515 24.9599 149.19C27.4999 147.865 33.4149 154.015 35.3599 154.69C37.3049 155.365 37.7399 149.295 40.3049 151.31C42.8699 153.325 41.2149 162.455 44.1999 163.58C46.4249 164.415 45.1999 161.15 47.9449 161.27C51.6649 161.395 52.9299 174.185 49.4599 180.025Z" fill="black"/>
</g>
<path d="M58.765 180.54C61.31 181.065 66.11 179.5 68.265 177.51C70.42 175.52 65.265 176.04 66.125 174.295C66.985 172.55 72.74 175.025 74.34 172.6C75.94 170.175 71.485 169.97 71.905 168.655C72.325 167.34 76.78 168.45 78.745 165.92C80.71 163.39 76.46 164.225 77.295 163.18C78.13 162.135 84.005 158.18 82.115 156.77C80.225 155.36 74.615 159.59 72.96 159.865C71.305 160.14 71.585 156.565 69.245 157.865C66.905 159.165 67.06 166.79 64.49 167.315C62.575 167.705 63.955 164.485 61.75 164.955C57.875 165.78 57.73 180.33 58.765 180.54Z" fill="#92E3A9"/>
<path d="M75.1147 161.145C75.1147 161.145 60.0597 171.27 55.8647 189.8" stroke="#263238" stroke-linecap="round" stroke-linejoin="round"/>
<path d="M74.3499 167C72.5194 166.644 70.6352 166.67 68.8149 167.075" stroke="#263238" stroke-linecap="round" stroke-linejoin="round"/>
<path d="M70.8 159.5C68.4649 162.213 66.9967 165.564 66.585 169.12" stroke="#263238" stroke-linecap="round" stroke-linejoin="round"/>
<path d="M64.1699 171.91C64.9852 171.398 65.9161 171.099 66.8771 171.04C67.8382 170.982 68.7985 171.165 69.6699 171.575" stroke="#263238" stroke-linecap="round" stroke-linejoin="round"/>
<path d="M60.89 176.665C60.3239 174.373 60.3618 171.973 61 169.7" stroke="#263238" stroke-linecap="round" stroke-linejoin="round"/>
<path d="M54.6147 179.145C57.6597 178.305 62.0047 173.965 63.2297 170.645C64.4547 167.325 59.1797 170.695 59.1347 168.34C59.0897 165.985 66.7097 165.48 67.1347 161.97C67.5597 158.46 62.5847 160.695 62.3197 159.035C62.0547 157.375 67.4897 156.125 68.2247 152.3C68.9597 148.475 64.8097 151.72 65.1397 150.125C65.4697 148.53 69.6397 140.995 66.8347 140.515C64.0297 140.035 60.2697 147.705 58.6147 148.925C56.9597 150.145 55.2997 146.1 53.4797 148.805C51.6597 151.51 56.0347 159.695 53.5397 161.68C51.6797 163.18 51.3997 158.905 49.2647 160.63C45.4997 163.625 53.3747 179.5 54.6147 179.145Z" fill="#92E3A9"/>
<g opacity="0.2">
<path d="M54.6147 179.145C57.6597 178.305 62.0047 173.965 63.2297 170.645C64.4547 167.325 59.1797 170.695 59.1347 168.34C59.0897 165.985 66.7097 165.48 67.1347 161.97C67.5597 158.46 62.5847 160.695 62.3197 159.035C62.0547 157.375 67.4897 156.125 68.2247 152.3C68.9597 148.475 64.8097 151.72 65.1397 150.125C65.4697 148.53 69.6397 140.995 66.8347 140.515C64.0297 140.035 60.2697 147.705 58.6147 148.925C56.9597 150.145 55.2997 146.1 53.4797 148.805C51.6597 151.51 56.0347 159.695 53.5397 161.68C51.6797 163.18 51.3997 158.905 49.2647 160.63C45.4997 163.625 53.3747 179.5 54.6147 179.145Z" fill="white"/>
</g>
<path d="M56.91 215.465C56.74 215.505 50.98 215.505 50.815 215.465C46.585 214.54 31.58 209.61 45.105 193.64H62.42C75.94 209.6 61.135 214.54 56.91 215.465Z" fill="white" stroke="#263238" stroke-miterlimit="10"/>
<path d="M36.915 161.26C36.915 161.26 49.175 169.63 51.85 191" stroke="#263238" stroke-linecap="round" stroke-linejoin="round"/>
<path d="M35.0449 163.875C38.0049 163.24 39.8149 163.825 39.8149 163.825" stroke="#263238" stroke-linecap="round" stroke-linejoin="round"/>
<path d="M38.3999 155.055C38.3999 155.055 42.1199 159.975 42.0799 166.395" stroke="#263238" stroke-linecap="round" stroke-linejoin="round"/>
<path d="M45.7299 171.81C45.7299 171.81 43.0799 169.31 39.5649 170.595" stroke="#263238" stroke-linecap="round" stroke-linejoin="round"/>
<path d="M47.645 175.595C48.5304 173.079 48.7458 170.375 48.27 167.75" stroke="#263238" stroke-linecap="round" stroke-linejoin="round"/>
<path d="M61.7351 151.555C61.7351 151.555 51.5001 165.885 54.8751 191.965" stroke="#263238" stroke-linecap="round" stroke-linejoin="round"/>
<path d="M67.7249 153.6C62.3599 153.6 59.5299 155.66 59.3599 155.79" stroke="#263238" stroke-linecap="round" stroke-linejoin="round"/>
<path d="M57.7002 159.775C56.5643 156.213 56.2565 152.439 56.8002 148.74" stroke="#263238" stroke-linecap="round" stroke-linejoin="round"/>
<path d="M55.5352 167.68C55.5352 167.68 57.6652 163.63 62.2602 163.59" stroke="#263238" stroke-linecap="round" stroke-linejoin="round"/>
<path d="M54.7699 172.915C54.7699 172.915 51.8999 169.715 51.0049 164.04" stroke="#263238" stroke-linecap="round" stroke-linejoin="round"/>
<path d="M44.7348 193.645H62.9298L64.0348 188.49H43.6348L44.7348 193.645Z" fill="white" stroke="#263238" stroke-miterlimit="10"/>
<path d="M64.0299 200.05C64.8718 201.852 65.2319 203.842 65.0749 205.825C64.9599 207.235 64.4399 208.795 63.1499 209.38" stroke="#263238" stroke-linecap="round" stroke-linejoin="round"/>
<path d="M62 197C62.4489 197.475 62.8555 197.989 63.215 198.535" stroke="#263238" stroke-linecap="round" stroke-linejoin="round"/>
<path d="M123.76 157.79H88.0601L94.6451 184.64H130.35L123.76 157.79Z" fill="#263238" stroke="#263238" stroke-linecap="round" stroke-linejoin="round"/>
<path d="M122.07 159.345H90.5103L96.3402 183.08H127.895L122.07 159.345Z" fill="white" stroke="#263238" stroke-linecap="round" stroke-linejoin="round"/>
<path d="M122.07 159.345H90.5103L91.0602 161.565H122.615L122.07 159.345Z" fill="#92E3A9" stroke="#263238" stroke-linecap="round" stroke-linejoin="round"/>
<path d="M146.345 182.24H94.0801V184.64H146.345V182.24Z" fill="white" stroke="#263238" stroke-linecap="round" stroke-linejoin="round"/>
<path d="M146.355 182.24H117.74V184.64H146.355V182.24Z" fill="#263238" stroke="#263238" stroke-linecap="round" stroke-linejoin="round"/>
<path d="M118.455 170.355L118.815 171.86H95.1998L94.8398 170.355H118.455Z" fill="#92E3A9"/>
<path d="M123.885 172.6H95.19L94.48 169.6H123.175L123.885 172.6ZM95.47 172.255H123.47L122.92 169.93H94.92L95.47 172.255Z" fill="#263238"/>
<path d="M110.34 168.235H106.85L105.98 164.745H106.975L107.05 165.04H106.35L107.07 167.94H109.97L109.245 165.04H108.53L108.455 164.745H109.47L110.34 168.235Z" fill="#92E3A9" stroke="#92E3A9" stroke-width="0.2" stroke-miterlimit="10"/>
<path d="M108.31 166.49H108.015L107.185 163.155H107.48L108.31 166.49Z" fill="#92E3A9" stroke="#92E3A9" stroke-width="0.2" stroke-miterlimit="10"/>
<path d="M108.21 166.66L106.96 166.085L107.03 165.825L108.115 166.32L108.905 165.77L109.12 166.025L108.21 166.66Z" fill="#92E3A9" stroke="#92E3A9" stroke-width="0.2" stroke-miterlimit="10"/>
<path d="M182.355 81.905L166.99 123.68H169.19L184.205 82.86L182.355 81.905Z" stroke="#263238" stroke-linecap="round" stroke-linejoin="round"/>
<path d="M184.79 74.73L156.79 43.76C156.787 43.8639 156.777 43.9675 156.76 44.07C156.663 44.5518 156.423 44.993 156.07 45.335C157.366 46.4098 158.412 47.7544 159.135 49.275L182.175 74.775L182.47 72.325L184.79 74.73Z" stroke="#263238" stroke-linecap="round" stroke-linejoin="round"/>
<path d="M154.2 44.085L154.48 44.255L156.085 45L155.94 45.265L156.05 45.35C156.403 45.008 156.643 44.5668 156.74 44.085C156.757 43.9825 156.767 43.8789 156.77 43.775C156.824 43.1543 156.638 42.5363 156.249 42.0493C155.861 41.5623 155.299 41.2436 154.682 41.1593C154.065 41.0751 153.438 41.2317 152.933 41.5968C152.428 41.9619 152.083 42.5073 151.97 43.12L152.28 43.26C152.943 43.4766 153.586 43.7527 154.2 44.085Z" fill="#92E3A9" stroke="#263238" stroke-miterlimit="10"/>
<path d="M163.96 123.68V135.595H171.005V131.425H165.49V127.525H171.005V123.68H169.19H166.99H163.96Z" stroke="#263238" stroke-linecap="round" stroke-linejoin="round"/>
<path d="M152.28 43.245L151.97 43.105L151.945 43.135L152.28 43.245Z" stroke="#263238" stroke-linecap="round" stroke-linejoin="round"/>
<path d="M154.5 44.26C155.003 44.5584 155.485 44.8926 155.94 45.26L156.085 44.995L154.5 44.26Z" stroke="#263238" stroke-linecap="round" stroke-linejoin="round"/>
<path d="M184.38 82.95L187.205 77.225L184.79 74.73L182.45 72.31L182.155 74.76L181.365 81.395L182.355 81.905L184.205 82.86L184.38 82.95Z" stroke="#263238" stroke-linecap="round" stroke-linejoin="round"/>
<path d="M144.2 55.215C144.61 56.1126 145.256 56.8824 146.068 57.4424C146.881 58.0024 147.83 58.3317 148.815 58.3953C149.799 58.4589 150.783 58.2544 151.661 57.8036C152.539 57.3528 153.278 56.6724 153.8 55.835C150.553 54.1683 147.29 52.6167 144.01 51.18C143.556 52.4999 143.624 53.9436 144.2 55.215Z" fill="white" stroke="#263238" stroke-miterlimit="10"/>
<path d="M156.05 45.335L155.94 45.25C155.485 44.8826 155.003 44.5484 154.5 44.25L154.22 44.08C153.607 43.7426 152.964 43.4615 152.3 43.24L151.965 43.13C149.399 42.354 146.644 42.484 144.162 43.4981C141.681 44.5123 139.623 46.3489 138.335 48.7L138.895 49.01C140.605 49.7 142.312 50.42 144.015 51.17C147.292 52.6133 150.555 54.165 153.805 55.825C155.675 56.7783 157.538 57.7667 159.395 58.79C160.342 56.482 160.528 53.9324 159.928 51.5111C159.327 49.0898 157.971 46.923 156.055 45.325L156.05 45.335Z" fill="#92E3A9" stroke="#263238" stroke-miterlimit="10"/>
<path d="M221.735 128.01H164.33V204.215H221.735V128.01Z" fill="#BFBFBF" stroke="#263238" stroke-linecap="round" stroke-linejoin="round"/>
<path d="M214.11 134.615H170.93V149.35H214.11V134.615Z" fill="#757575" stroke="#263238" stroke-linecap="round" stroke-linejoin="round"/>
<path d="M214.11 153.92H170.93V196.595H214.11V153.92Z" fill="#757575" stroke="#263238" stroke-linecap="round" stroke-linejoin="round"/>
<path d="M225.455 123.405H160.265V127.975H225.455V123.405Z" fill="#757575" stroke="#263238" stroke-linecap="round" stroke-linejoin="round"/>
<path d="M194.47 138.34C194.47 138.709 194.36 139.07 194.155 139.377C193.95 139.683 193.658 139.923 193.317 140.064C192.976 140.205 192.601 140.241 192.239 140.169C191.877 140.096 191.545 139.918 191.284 139.657C191.024 139.396 190.846 139.063 190.775 138.701C190.704 138.339 190.741 137.964 190.883 137.623C191.025 137.282 191.265 136.991 191.572 136.787C191.88 136.583 192.241 136.474 192.61 136.475C192.854 136.475 193.097 136.523 193.323 136.617C193.549 136.711 193.754 136.848 193.927 137.022C194.1 137.195 194.236 137.4 194.33 137.627C194.423 137.853 194.47 138.095 194.47 138.34Z" fill="#BFBFBF" stroke="#263238" stroke-linecap="round" stroke-linejoin="round"/>
<path d="M209.205 180.875C210.796 180.875 212.085 178.07 212.085 174.61C212.085 171.15 210.796 168.345 209.205 168.345C207.615 168.345 206.325 171.15 206.325 174.61C206.325 178.07 207.615 180.875 209.205 180.875Z" fill="#BFBFBF" stroke="#263238" stroke-linecap="round" stroke-linejoin="round"/>
<path d="M209.205 183.89C209.006 183.893 208.808 183.857 208.623 183.783C208.438 183.709 208.27 183.599 208.128 183.46C207.986 183.32 207.873 183.153 207.796 182.97C207.719 182.786 207.68 182.589 207.68 182.39V167.465C207.677 167.264 207.714 167.064 207.789 166.877C207.865 166.691 207.977 166.521 208.119 166.379C208.261 166.237 208.431 166.125 208.617 166.049C208.804 165.974 209.004 165.937 209.205 165.94C209.404 165.94 209.601 165.98 209.785 166.057C209.968 166.133 210.135 166.246 210.275 166.388C210.414 166.53 210.524 166.698 210.598 166.883C210.672 167.068 210.708 167.266 210.705 167.465V182.37C210.708 182.569 210.671 182.766 210.597 182.95C210.522 183.134 210.412 183.302 210.273 183.444C210.133 183.585 209.967 183.697 209.784 183.774C209.6 183.851 209.404 183.89 209.205 183.89Z" fill="#BFBFBF" stroke="#263238" stroke-linecap="round" stroke-linejoin="round"/>
<path d="M215.055 117.995L219.335 106.86H218.675L214.095 117.995H215.055Z" fill="#263238" stroke="#263238" stroke-miterlimit="10"/>
<path d="M196.39 117.965L192.11 106.83H192.77L197.345 117.965H196.39Z" fill="#263238" stroke="#263238" stroke-miterlimit="10"/>
<path d="M196.565 117.965L196.78 118.465H197.42L197.215 117.965H196.565Z" fill="#263238" stroke="#263238" stroke-miterlimit="10"/>
<path d="M214.895 117.965L214.675 118.465H214.035L214.24 117.965H214.895Z" fill="#263238" stroke="#263238" stroke-miterlimit="10"/>
<path d="M198.11 121.375H195.46V123.025H198.11V121.375Z" fill="white" stroke="#263238" stroke-miterlimit="10"/>
<path d="M216.07 121.375H213.42V123.025H216.07V121.375Z" fill="white" stroke="#263238" stroke-miterlimit="10"/>
<path d="M217 122.105L211.25 122.73C207.594 123.127 203.906 123.127 200.25 122.73L194.5 122.105V118.535L199.175 117.93C203.537 117.365 207.953 117.365 212.315 117.93L216.985 118.535L217 122.105Z" fill="#263238" stroke="#263238" stroke-miterlimit="10"/>
<path d="M197.85 120.425C197.851 120.637 197.789 120.845 197.672 121.021C197.555 121.198 197.387 121.336 197.192 121.418C196.996 121.499 196.78 121.521 196.572 121.48C196.364 121.439 196.173 121.337 196.023 121.187C195.873 121.037 195.771 120.846 195.73 120.638C195.689 120.429 195.711 120.214 195.792 120.018C195.874 119.822 196.012 119.655 196.189 119.538C196.365 119.421 196.573 119.359 196.785 119.36C197.067 119.361 197.337 119.474 197.537 119.673C197.736 119.873 197.849 120.143 197.85 120.425Z" fill="white" stroke="#263238" stroke-miterlimit="10"/>
<path d="M202.815 120.43C202.816 120.498 202.796 120.564 202.76 120.621C202.723 120.677 202.669 120.722 202.607 120.748C202.545 120.774 202.476 120.782 202.41 120.769C202.343 120.756 202.282 120.723 202.234 120.675C202.187 120.628 202.154 120.566 202.141 120.5C202.128 120.434 202.135 120.365 202.162 120.303C202.188 120.24 202.232 120.187 202.289 120.15C202.346 120.113 202.412 120.094 202.48 120.095C202.524 120.095 202.567 120.104 202.608 120.121C202.649 120.137 202.685 120.162 202.717 120.193C202.748 120.224 202.772 120.261 202.789 120.302C202.806 120.342 202.815 120.386 202.815 120.43Z" fill="white"/>
<path d="M205.215 120.43C205.215 120.496 205.195 120.561 205.158 120.616C205.122 120.671 205.069 120.714 205.008 120.74C204.947 120.765 204.88 120.771 204.815 120.759C204.75 120.746 204.69 120.714 204.643 120.667C204.596 120.62 204.564 120.56 204.551 120.495C204.538 120.43 204.545 120.363 204.57 120.302C204.596 120.241 204.639 120.188 204.694 120.151C204.749 120.115 204.814 120.095 204.88 120.095C204.924 120.095 204.967 120.104 205.008 120.12C205.049 120.137 205.086 120.162 205.117 120.193C205.148 120.224 205.173 120.261 205.189 120.302C205.206 120.342 205.215 120.386 205.215 120.43Z" fill="white"/>
<path d="M207.62 120.43C207.621 120.497 207.602 120.564 207.565 120.62C207.528 120.677 207.476 120.721 207.414 120.748C207.351 120.774 207.283 120.782 207.217 120.769C207.15 120.757 207.089 120.725 207.041 120.677C206.993 120.63 206.96 120.569 206.947 120.503C206.933 120.437 206.94 120.368 206.965 120.306C206.991 120.244 207.034 120.19 207.09 120.153C207.147 120.115 207.212 120.095 207.28 120.095C207.324 120.094 207.368 120.103 207.41 120.119C207.451 120.136 207.488 120.16 207.52 120.191C207.552 120.223 207.577 120.26 207.594 120.301C207.611 120.342 207.62 120.386 207.62 120.43Z" fill="white"/>
<path d="M210 120.43C210.001 120.474 209.992 120.519 209.976 120.56C209.959 120.601 209.935 120.638 209.904 120.67C209.872 120.702 209.835 120.727 209.794 120.744C209.753 120.761 209.709 120.77 209.665 120.77C209.617 120.776 209.569 120.771 209.523 120.757C209.477 120.743 209.434 120.719 209.398 120.687C209.362 120.655 209.333 120.616 209.314 120.572C209.294 120.528 209.284 120.481 209.284 120.433C209.284 120.384 209.294 120.337 209.314 120.293C209.333 120.249 209.362 120.21 209.398 120.178C209.434 120.146 209.477 120.122 209.523 120.108C209.569 120.094 209.617 120.089 209.665 120.095C209.754 120.095 209.839 120.13 209.902 120.193C209.965 120.256 210 120.341 210 120.43Z" fill="white"/>
<path d="M182.955 123.18H184.885C184.843 123.123 184.813 123.058 184.795 122.99C184.186 123.087 183.571 123.15 182.955 123.18Z" stroke="#263238" stroke-miterlimit="10"/>
<path opacity="0.3" d="M182.955 123.18H184.885C184.843 123.123 184.813 123.058 184.795 122.99C184.186 123.087 183.571 123.15 182.955 123.18Z" stroke="#263238" stroke-miterlimit="10"/>
<path d="M185.86 122.135C185.86 122.2 185.98 122.205 186.025 122.265C186.21 122.49 185.95 123.03 185.875 123.18H188.5L186.5 119.735C186.22 120.735 185.7 121.635 185.86 122.135Z" stroke="#263238" stroke-miterlimit="10"/>
<path opacity="0.3" d="M185.86 122.135C185.86 122.2 185.98 122.205 186.025 122.265C186.21 122.49 185.95 123.03 185.875 123.18H188.5L186.5 119.735C186.22 120.735 185.7 121.635 185.86 122.135Z" stroke="#263238" stroke-miterlimit="10"/>
<path d="M186.025 122.265C185.98 122.205 185.88 122.2 185.86 122.135C185.7 121.635 186.22 120.735 186.485 119.735C186.522 119.598 186.552 119.463 186.575 119.33C186.78 118.17 186.475 117.095 186.855 116.53C187.005 116.305 187.3 116.19 187.355 115.925C187.41 115.66 187.145 115.54 187.075 115.315C186.9 114.75 187.575 113.675 187.79 112.515C188.005 111.355 187.695 110.275 188.07 109.71C188.115 109.645 188.215 109.64 188.285 109.585C188.595 109.32 188.455 108.63 188.455 108.63C188.455 108.63 187.81 108.365 187.5 108.63C187.42 108.695 187.395 108.81 187.31 108.85C186.52 109.245 185.035 108.595 183.31 108.595C181.585 108.595 179.865 109.235 179.21 108.84C179.14 108.8 179.155 108.68 179.105 108.615C178.885 108.355 178.15 108.615 178.15 108.615C178.15 108.615 177.765 109.305 177.98 109.57C178.025 109.625 178.125 109.63 178.145 109.7C178.325 110.265 177.645 111.34 177.43 112.5C177.215 113.66 177.53 114.735 177.15 115.3C177 115.525 176.705 115.64 176.65 115.91C176.595 116.18 176.86 116.29 176.93 116.515C177.11 117.08 176.43 118.155 176.215 119.315C176 120.475 176.315 121.555 175.935 122.12C175.89 122.185 175.79 122.19 175.72 122.25C175.41 122.51 175.55 123.2 175.55 123.2C175.55 123.2 176.195 123.465 176.505 123.2C176.58 123.138 176.645 123.063 176.695 122.98C178.019 123.173 179.357 123.258 180.695 123.235C181.51 123.235 182.28 123.235 182.955 123.18C183.571 123.15 184.186 123.087 184.795 122.99C184.813 123.058 184.843 123.123 184.885 123.18C184.885 123.18 184.885 123.18 184.885 123.215C185.1 123.48 185.835 123.215 185.835 123.215V123.18C185.95 123.03 186.21 122.5 186.025 122.265ZM181 121.735C180.519 121.75 180.04 121.655 179.602 121.456C179.163 121.258 178.776 120.961 178.47 120.589C178.164 120.217 177.948 119.78 177.838 119.311C177.728 118.842 177.727 118.354 177.835 117.885L178.5 114.16C178.712 113.104 179.274 112.151 180.095 111.454C180.917 110.757 181.949 110.357 183.025 110.32C183.507 110.304 183.986 110.4 184.425 110.599C184.864 110.798 185.251 111.095 185.557 111.468C185.863 111.84 186.079 112.278 186.189 112.748C186.299 113.217 186.299 113.705 186.19 114.175L185.5 117.895C185.29 118.947 184.732 119.898 183.915 120.595C183.099 121.291 182.072 121.693 181 121.735Z" stroke="#263238" stroke-miterlimit="10"/>
<path d="M185.5 117.895L186.165 114.175C186.274 113.705 186.274 113.217 186.164 112.748C186.054 112.278 185.838 111.84 185.532 111.468C185.226 111.095 184.839 110.798 184.4 110.599C183.961 110.4 183.482 110.304 183 110.32C181.924 110.357 180.891 110.757 180.07 111.454C179.249 112.151 178.687 113.104 178.475 114.16L177.81 117.885C177.702 118.354 177.703 118.842 177.813 119.311C177.923 119.78 178.139 120.217 178.445 120.589C178.751 120.961 179.138 121.258 179.577 121.456C180.015 121.655 180.494 121.75 180.975 121.735C182.052 121.698 183.084 121.299 183.906 120.602C184.727 119.905 185.289 118.951 185.5 117.895Z" stroke="#263238" stroke-miterlimit="10"/>
<path d="M112.385 59.375C112.385 62.3255 111.259 65.1647 109.236 67.3124C107.212 69.4601 104.445 70.7541 101.5 70.93C101.265 70.93 70.4452 70.93 70.1502 70.93C67.2476 70.7156 64.5321 69.416 62.5444 67.2899C60.5567 65.1638 59.4425 62.3672 59.4236 59.4567C59.4047 56.5462 60.4824 53.7354 62.4424 51.5836C64.4023 49.4319 67.1006 48.0971 70.0002 47.845C70.231 43.598 72.0865 39.6024 75.1825 36.686C78.2785 33.7696 82.3777 32.1559 86.6309 32.179C90.8841 32.2021 94.9655 33.8604 98.0296 36.8103C101.094 39.7602 102.906 43.7757 103.09 48.025C105.712 48.5527 108.07 49.9714 109.764 52.0403C111.459 54.1093 112.385 56.7008 112.385 59.375Z" fill="white" stroke="#263238" stroke-miterlimit="10"/>
<path d="M73.6753 43.2C74.8065 40.517 76.704 38.2274 79.1302 36.6176C81.5564 35.0078 84.4036 34.1495 87.3153 34.15" stroke="#263238" stroke-linecap="round" stroke-linejoin="round"/>
<path d="M72.54 48.115C72.5848 47.2558 72.707 46.4023 72.905 45.565" stroke="#263238" stroke-linecap="round" stroke-linejoin="round"/>
<path d="M86.5 127.38C87.265 129.11 88.04 130.805 88.835 132.45" stroke="#263238" stroke-linecap="round" stroke-linejoin="round"/>
<path d="M69.9551 78.33C69.9551 78.33 75.9551 101.83 84.5051 122.69" stroke="#263238" stroke-linecap="round" stroke-linejoin="round"/>
<path d="M103.64 95.825C103.68 96.725 103.675 97.39 103.73 98.195" stroke="#263238" stroke-linecap="round" stroke-linejoin="round"/>
<path d="M103.64 74.22C103.595 74.645 103.27 85.1 103.51 93.53" stroke="#263238" stroke-linecap="round" stroke-linejoin="round"/>
<path d="M118.14 143.565L107.5 159.79L87.1103 144.715L97.2703 144.34L96.6203 142.755C86.9613 119.272 79.9432 94.7886 75.6953 69.755L73.6553 57.755L98.6903 57.495L98.5703 61.28C98.5287 89.1342 101.887 116.889 108.57 143.93L118.14 143.565Z" fill="#92E3A9" stroke="#263238" stroke-miterlimit="10"/>
<path d="M84.8204 58.445H94.1204L94.1504 61.72C94.205 68.0999 94.6006 74.4723 95.3354 80.81L81.3354 81.51L80.6104 77.355C79.9004 73.3128 79.4959 69.2229 79.4004 65.12L84.8504 58.46" fill="white"/>
<path d="M84.8204 58.445H94.1204L94.1504 61.72C94.205 68.0999 94.6006 74.4723 95.3354 80.81L81.3354 81.51L80.6104 77.355C79.9004 73.3128 79.4959 69.2229 79.4004 65.12L84.8504 58.46" stroke="#263238" stroke-linecap="round" stroke-linejoin="round"/>
<path d="M85.4252 64.985L79.4302 65.07L84.8252 58.46L85.4252 64.985Z" fill="white" stroke="#263238" stroke-linecap="round" stroke-linejoin="round"/>
<path d="M100.38 152.105C99.6793 152.099 98.9852 151.969 98.3301 151.72C97.8882 151.517 97.4957 151.221 97.1797 150.851C96.8637 150.482 96.6318 150.048 96.5001 149.58C96.4701 149.475 96.4451 149.37 96.4251 149.26C96.2982 148.459 96.3755 147.638 96.6501 146.875C97.1501 145.375 98.3151 144.585 100.065 144.585C100.685 144.592 101.301 144.676 101.9 144.835H101.99L96.5301 129.295C96.5064 129.224 96.499 129.148 96.5085 129.074C96.5181 128.999 96.5442 128.928 96.5851 128.865C96.6257 128.811 96.6777 128.767 96.7373 128.736C96.797 128.705 96.8628 128.688 96.9301 128.685C97.0593 128.684 97.1857 128.722 97.2928 128.795C97.3999 128.867 97.4826 128.97 97.5301 129.09L97.6651 129.47C98.4773 130.42 99.5786 131.076 100.8 131.34C101.969 131.591 103.043 132.167 103.9 133C104.422 133.475 104.812 134.078 105.03 134.75L106.43 138.72C106.452 138.772 106.464 138.828 106.464 138.885C106.464 138.942 106.452 138.998 106.43 139.05C106.406 139.097 106.373 139.138 106.333 139.172C106.292 139.205 106.245 139.23 106.195 139.245H106.135H106.035C105.904 139.236 105.78 139.181 105.685 139.09C104.855 138.023 103.68 137.279 102.36 136.985C101.547 136.814 100.787 136.449 100.145 135.92L103.795 146.32C104.248 147.624 104.199 149.051 103.655 150.32C103.327 150.891 102.848 151.36 102.27 151.675C101.692 151.99 101.038 152.139 100.38 152.105Z" fill="white"/>
<path d="M96.96 128.955C97.0341 128.959 97.1055 128.985 97.1657 129.028C97.226 129.071 97.2726 129.131 97.3 129.2L97.45 129.62C98.2993 130.635 99.462 131.338 100.755 131.62C101.872 131.853 102.901 132.395 103.725 133.185C104.218 133.629 104.585 134.194 104.79 134.825L106.195 138.825C106.203 138.844 106.207 138.864 106.207 138.885C106.206 138.905 106.202 138.926 106.193 138.945C106.185 138.963 106.173 138.98 106.158 138.994C106.142 139.008 106.125 139.018 106.105 139.025H106.055C105.976 139.02 105.901 138.986 105.845 138.93C104.981 137.833 103.764 137.068 102.4 136.765C101.32 136.511 100.34 135.942 99.585 135.13L103.55 146.425C103.969 147.66 103.927 149.004 103.43 150.21C103.128 150.743 102.684 151.183 102.147 151.479C101.611 151.776 101.002 151.918 100.39 151.89C99.7219 151.884 99.0601 151.761 98.435 151.525C98.0288 151.337 97.6679 151.064 97.3771 150.724C97.0863 150.384 96.8724 149.985 96.75 149.555C96.7231 149.46 96.7014 149.363 96.685 149.265C96.5598 148.501 96.6338 147.717 96.9 146.99C97.44 145.31 98.805 144.875 100.075 144.875C100.673 144.883 101.267 144.964 101.845 145.115C101.95 145.115 102.04 145.165 102.125 145.185H102.185L102.4 145.255L96.775 129.255C96.735 129.105 96.805 128.98 96.955 128.975M96.955 128.475H96.915C96.81 128.478 96.7071 128.506 96.6143 128.555C96.5215 128.605 96.4414 128.675 96.38 128.76C96.3157 128.851 96.2732 128.956 96.2558 129.066C96.2385 129.176 96.2468 129.289 96.28 129.395V129.42L101.605 144.5C101.099 144.391 100.583 144.334 100.065 144.33C98.195 144.33 96.935 145.18 96.41 146.79C96.1275 147.591 96.0485 148.45 96.18 149.29C96.1989 149.403 96.2239 149.515 96.255 149.625C96.3976 150.134 96.6509 150.604 96.9966 151.004C97.3424 151.403 97.7721 151.721 98.255 151.935C98.939 152.194 99.6636 152.33 100.395 152.335C101.095 152.365 101.79 152.201 102.403 151.86C103.015 151.519 103.521 151.016 103.865 150.405C104.439 149.076 104.497 147.58 104.03 146.21L100.63 136.535C101.143 136.856 101.711 137.082 102.305 137.2C103.558 137.478 104.674 138.186 105.46 139.2V139.23V139.255C105.596 139.385 105.772 139.465 105.96 139.48H106.085L106.21 139.445C106.375 139.393 106.514 139.278 106.595 139.125C106.669 138.968 106.68 138.789 106.625 138.625L105.22 134.625C104.988 133.918 104.576 133.284 104.025 132.785C103.133 131.932 102.019 131.346 100.81 131.095C99.6617 130.843 98.6243 130.23 97.85 129.345L97.735 129.015C97.6724 128.848 97.5613 128.704 97.4161 128.6C97.2709 128.497 97.0982 128.44 96.92 128.435L96.955 128.475Z" fill="#263238"/>
<path d="M76.6252 111.04L90.1952 108.115C88.5119 100.755 87.1669 93.33 86.1602 85.84L71.1152 89.085C72.6152 96.485 74.4519 103.803 76.6252 111.04Z" fill="white" stroke="#263238" stroke-linecap="round" stroke-linejoin="round"/>
<path d="M87.69 103.415L76.69 105.79C75.41 101.065 74.83 98.69 73.79 93.91L85.445 91.41C86.21 96.23 86.665 98.635 87.69 103.415Z" fill="#263238" stroke="#263238" stroke-linecap="round" stroke-linejoin="round"/>
<path d="M83 98.025C82.165 100.765 81.765 102.135 81 104.86L87.69 103.42C85.765 101.27 84.825 100.19 83 98.025Z" fill="white" stroke="#263238" stroke-linecap="round" stroke-linejoin="round"/>
<path d="M79.0002 97.42C78.0002 100.78 77.5502 102.455 76.6602 105.79L84.8302 104.03C82.4552 101.395 81.2902 100.075 79.0002 97.42Z" fill="white" stroke="#263238" stroke-linecap="round" stroke-linejoin="round"/>
<path d="M85.1004 94.74C85.1658 95.0511 85.1087 95.3754 84.9411 95.6454C84.7735 95.9155 84.5082 96.1106 84.2004 96.19C84.0485 96.2179 83.8925 96.215 83.7417 96.1815C83.5909 96.1481 83.4484 96.0847 83.3225 95.9952C83.1967 95.9057 83.09 95.7919 83.0089 95.6604C82.9278 95.529 82.8739 95.3826 82.8504 95.23C82.7819 94.9168 82.8374 94.5893 83.0052 94.3162C83.173 94.043 83.4401 93.8455 83.7504 93.765C83.9035 93.7365 84.0607 93.7393 84.2127 93.7734C84.3646 93.8075 84.508 93.8721 84.6343 93.9633C84.7605 94.0544 84.8669 94.1703 84.947 94.3038C85.0271 94.4373 85.0793 94.5857 85.1004 94.74Z" fill="white" stroke="#263238" stroke-linecap="round" stroke-linejoin="round"/>
<path d="M95.83 125.32L111.245 126.5C108.787 119.391 107.743 111.87 108.17 104.36L93.145 100.735C92.424 109.027 93.3363 117.379 95.83 125.32Z" fill="white" stroke="#263238" stroke-linecap="round" stroke-linejoin="round"/>
<path d="M107 115.27C107.46 118.625 105.415 120.995 102.04 120.61C98.6653 120.225 95.2753 117 94.8653 113.35C94.4553 109.7 97.1703 107.29 100.495 107.96C103.82 108.63 106.565 111.92 107 115.27Z" fill="#263238" stroke="#263238" stroke-linecap="round" stroke-linejoin="round"/>
<path d="M104.465 114.87C102.025 113.18 100.83 112.31 98.4653 110.515C98.5852 112.833 98.8625 115.14 99.2953 117.42C101.345 116.35 102.375 115.84 104.465 114.87Z" fill="white" stroke="#263238" stroke-linecap="round" stroke-linejoin="round"/>
<path d="M103 185.16C110.845 181.44 140.38 191.16 140.38 191.16L138.5 195.26C138.5 195.26 92.8698 189.965 103 185.16Z" fill="#263238" stroke="#263238" stroke-linecap="round" stroke-linejoin="round"/>
<path d="M138.455 195.625C135.856 194.741 133.315 193.697 130.845 192.5C122.945 188.62 107.44 181.84 101.79 185.31C94.065 190.045 99.215 203.135 116.675 211.78C134.135 220.425 147.115 220.555 151.28 216.505C155.08 212.83 148.13 198.97 138.455 195.625Z" fill="#263238" stroke="#263238" stroke-linecap="round" stroke-linejoin="round"/>
<path d="M142.305 109.5C142.305 109.5 141.48 112.455 141.805 113.5C142.13 114.545 143.39 115.77 143.135 117C142.88 118.23 141.5 119.71 141.635 120.68C141.77 121.65 143.395 122.12 143.395 122.12C143.395 122.12 145.71 126.58 146.395 128.12C147.08 129.66 147.57 129.22 149.1 129.12C150.63 129.02 154.285 126.95 156.465 125.24C158.645 123.53 157.01 116.62 154.085 111.61C151.16 106.6 145.385 105.5 143.895 106.47C142.405 107.44 142.305 109.5 142.305 109.5Z" fill="white"/>
<mask id="mask0_162_629" style="mask-type:luminance" maskUnits="userSpaceOnUse" x="141" y="106" width="17" height="24">
<path d="M142.305 109.5C142.305 109.5 141.48 112.455 141.805 113.5C142.13 114.545 143.39 115.77 143.135 117C142.88 118.23 141.5 119.71 141.635 120.68C141.77 121.65 143.395 122.12 143.395 122.12C143.395 122.12 145.71 126.58 146.395 128.12C147.08 129.66 147.57 129.22 149.1 129.12C150.63 129.02 154.285 126.95 156.465 125.24C158.645 123.53 157.01 116.62 154.085 111.61C151.16 106.6 145.385 105.5 143.895 106.47C142.405 107.44 142.305 109.5 142.305 109.5Z" fill="white"/>
</mask>
<g mask="url(#mask0_162_629)">
<path d="M151.095 108.29C150.14 110.53 148.84 114.445 149.72 117.46C151.045 121.99 152.285 124.46 150.4 127.595C150.06 128.135 149.73 128.625 149.4 129.05C151.075 128.705 154.4 126.815 156.4 125.225C158.575 123.515 156.945 116.605 154.02 111.595C153.275 110.309 152.281 109.186 151.095 108.29Z" fill="#92E3A9"/>
<path opacity="0.5" d="M151.095 108.29C150.14 110.53 148.84 114.445 149.72 117.46C151.045 121.99 152.285 124.46 150.4 127.595C150.06 128.135 149.73 128.625 149.4 129.05C151.075 128.705 154.4 126.815 156.4 125.225C158.575 123.515 156.945 116.605 154.02 111.595C153.275 110.309 152.281 109.186 151.095 108.29Z" fill="white"/>
<path d="M143.67 114.425C143.67 114.425 143.985 112.87 145.64 114.285" stroke="#263238" stroke-linecap="round" stroke-linejoin="round"/>
<path d="M145 117.065C145.16 117.595 145.09 118.065 144.835 118.16C144.58 118.255 144.255 117.87 144.095 117.34C143.935 116.81 144.005 116.34 144.25 116.255C144.495 116.17 144.85 116.54 145 117.065Z" fill="#263238"/>
</g>
<path d="M142.305 109.5C142.305 109.5 141.48 112.455 141.805 113.5C142.13 114.545 143.39 115.77 143.135 117C142.88 118.23 141.5 119.71 141.635 120.68C141.77 121.65 143.395 122.12 143.395 122.12C143.395 122.12 145.71 126.58 146.395 128.12C147.08 129.66 147.57 129.22 149.1 129.12C150.63 129.02 154.285 126.95 156.465 125.24C158.645 123.53 157.01 116.62 154.085 111.61C151.16 106.6 145.385 105.5 143.895 106.47C142.405 107.44 142.305 109.5 142.305 109.5Z" stroke="#263238" stroke-linecap="round" stroke-linejoin="round"/>
<path d="M143.38 176.68C143.38 176.68 140.305 173.825 139.38 173.745C138.455 173.665 137.095 174.15 136.745 174.12C136.395 174.09 135.59 173.785 134.975 174.09C134.513 174.355 134.089 174.681 133.715 175.06C133.084 175.281 132.47 175.545 131.875 175.85C130.875 176.35 128.435 178.875 128.035 179.435C127.635 179.995 127.955 180.375 128.57 180.07C129.185 179.765 132.535 177.57 132.535 177.57C132.535 177.57 135.355 179.22 136 180.005C136.771 180.989 137.814 181.725 139 182.12C140.144 182.445 141.316 182.661 142.5 182.765C142.5 182.765 144.815 180.715 144.58 179.035C144.548 178.582 144.426 178.14 144.22 177.735C144.014 177.331 143.728 176.972 143.38 176.68Z" fill="white" stroke="#263238" stroke-linecap="round" stroke-linejoin="round"/>
<path d="M164.8 137.61C163.991 137.97 163.215 138.4 162.48 138.895C161.12 139.81 159.78 141.8 159.315 146.085C158.85 150.37 158.9 160.53 158.85 164.845C158.735 174.845 145.605 174.75 143.315 175.635C141.025 176.52 138.875 179.04 139.95 181.25C140.905 183.215 143.575 183.41 145.755 183.305C148.68 183.16 163.755 182.355 165.975 180.575C169.205 177.985 168.475 174.4 168.88 170.275C170.175 157.775 170.345 144.86 170.345 144.86C170.373 143.203 169.841 141.586 168.834 140.27C167.828 138.954 166.406 138.017 164.8 137.61Z" fill="white" stroke="#263238" stroke-linecap="round" stroke-linejoin="round"/>
<path d="M153.085 128.18C153.085 128.18 155.285 128.855 154.95 130.72C154.615 132.585 154.27 134.275 154.27 134.275C154.27 134.275 166.27 134.615 166.125 133.935C165.98 133.255 162.57 121.745 162.57 121.745C162.57 121.745 156.135 121.405 153.085 128.18Z" fill="white"/>
<mask id="mask1_162_629" style="mask-type:luminance" maskUnits="userSpaceOnUse" x="153" y="121" width="14" height="14">
<path d="M153.085 128.18C153.085 128.18 155.285 128.855 154.95 130.72C154.615 132.585 154.27 134.275 154.27 134.275C154.27 134.275 166.27 134.615 166.125 133.935C165.98 133.255 162.57 121.745 162.57 121.745C162.57 121.745 156.135 121.405 153.085 128.18Z" fill="white"/>
</mask>
<g mask="url(#mask1_162_629)">
<path d="M163.795 126.815L154.95 130.72L154.795 131.63C154.795 131.63 162.195 130.63 164.33 128.6L163.795 126.815Z" fill="#92E3A9"/>
<path opacity="0.5" d="M163.795 126.815L154.95 130.72L154.795 131.63C154.795 131.63 162.195 130.63 164.33 128.6L163.795 126.815Z" fill="white"/>
</g>
<path d="M153.085 128.18C153.085 128.18 155.285 128.855 154.95 130.72C154.615 132.585 154.27 134.275 154.27 134.275C154.27 134.275 166.27 134.615 166.125 133.935C165.98 133.255 162.57 121.745 162.57 121.745C162.57 121.745 156.135 121.405 153.085 128.18Z" stroke="#263238" stroke-linecap="round" stroke-linejoin="round"/>
<path d="M141.91 136.305C138.41 138.52 139.445 140.935 140.29 145.13C142.2 154.585 144.76 172.855 143.79 177.455C142.65 182.835 139.445 186.265 135.04 186.265C132.995 186.265 132.515 188.23 130.3 187.265C125.56 185.23 121.99 186.715 120.3 188.11C113.355 193.87 122.13 214.21 132.3 219.11C141.4 223.475 151.155 220.61 155.96 218.665C157.68 217.965 159.505 218.295 161.305 218.755C170.745 221.14 178.365 213.015 179.21 205.755C180.51 194.575 177.01 194.07 175.25 181.71C175.103 180.36 175.048 179.002 175.085 177.645C175.03 169.095 178.475 161.145 177.62 148.18C177.28 143.065 176.475 136.505 173.05 134.635C158.7 126.775 142.025 136.235 141.91 136.305Z" fill="#92E3A9"/>
<mask id="mask2_162_629" style="mask-type:luminance" maskUnits="userSpaceOnUse" x="117" y="131" width="63" height="91">
<path d="M141.91 136.305C138.41 138.52 139.445 140.935 140.29 145.13C142.2 154.585 144.76 172.855 143.79 177.455C142.65 182.835 139.445 186.265 135.04 186.265C132.995 186.265 132.515 188.23 130.3 187.265C125.56 185.23 121.99 186.715 120.3 188.11C113.355 193.87 122.13 214.21 132.3 219.11C141.4 223.475 151.155 220.61 155.96 218.665C157.68 217.965 159.505 218.295 161.305 218.755C170.745 221.14 178.365 213.015 179.21 205.755C180.51 194.575 177.01 194.07 175.25 181.71C175.103 180.36 175.048 179.002 175.085 177.645C175.03 169.095 178.475 161.145 177.62 148.18C177.28 143.065 176.475 136.505 173.05 134.635C158.7 126.775 142.025 136.235 141.91 136.305Z" fill="white"/>
</mask>
<g mask="url(#mask2_162_629)">
<path opacity="0.2" d="M151.29 162.16L149.085 175.4C148.79 177.175 148.46 179.03 147.355 180.445C146.25 181.86 144.1 182.645 142.6 181.655C142.46 179.655 144.16 178.125 145.39 176.565C148.71 172.375 149.115 166.645 149.265 161.3C149.4 156.355 149.075 146.975 154.265 144.22C153.76 150.185 152.275 156.245 151.29 162.16Z" fill="black"/>
<path opacity="0.2" d="M154.69 182.76L154.92 183.06C154.49 183.595 153.74 183.73 153.06 183.84C152.38 183.95 151.625 184.105 151.215 184.655C150.805 185.205 151.12 186.245 151.81 186.19C150.93 186.26 144.405 186.02 145.5 183.855C146.07 182.74 153.33 182.89 154.69 182.76Z" fill="black"/>
<path opacity="0.2" d="M141.5 194C141.845 194.3 142.22 194.775 141.97 195.155C141.72 195.535 141.125 195.385 140.725 195.155C138.915 194.115 137.225 192.29 136.665 190.255C138.22 190.26 140.335 192.95 141.5 194Z" fill="black"/>
<path opacity="0.2" d="M134.735 192.325C134.737 193.579 135.083 194.809 135.735 195.88L133.815 193.32C136.039 198.018 139.652 201.92 144.165 204.5C142.277 203.414 140.887 201.635 140.29 199.54C140.49 200.245 142.135 199.44 141.86 198.5C141.61 197.67 140.495 197.935 139.835 197.65C137.595 196.71 136.04 194.265 134.735 192.325Z" fill="black"/>
<g opacity="0.2">
<path d="M118.04 195.565C122.465 203.68 130.64 209.835 138.345 214.945C147.5 221 156.5 217.71 164.775 216C162.995 217.07 163.43 217.955 165.225 218.315C168.04 218.265 170.56 216.735 172.795 215.02C175.03 213.305 176.895 210.74 179.215 206.375C178.145 213.375 169.765 220.545 162.55 219.03C160.05 218.53 157.96 218.27 156.32 218.76C154.39 219.335 153.96 219.46 150.43 220.455C144.105 222.235 135.11 222.095 129.23 217.4C125.652 214.465 122.837 210.708 121.025 206.45C119.517 203.018 118.516 199.385 118.055 195.665L118.04 195.565Z" fill="black"/>
</g>
<path opacity="0.2" d="M175.82 166.9C175.785 169.925 175.045 172.9 174.885 175.925C175.02 173.39 174.26 170.645 174.27 168.055C174.27 166.12 173.9 162.1 175.095 160.53C175.654 162.605 175.898 164.752 175.82 166.9Z" fill="black"/>
</g>
<path d="M141.91 136.305C138.41 138.52 139.445 140.935 140.29 145.13C142.2 154.585 144.76 172.855 143.79 177.455C142.65 182.835 139.445 186.265 135.04 186.265C132.995 186.265 132.515 188.23 130.3 187.265C125.56 185.23 121.99 186.715 120.3 188.11C113.355 193.87 122.13 214.21 132.3 219.11C141.4 223.475 151.155 220.61 155.96 218.665C157.68 217.965 159.505 218.295 161.305 218.755C170.745 221.14 178.365 213.015 179.21 205.755C180.51 194.575 177.01 194.07 175.25 181.71C175.103 180.36 175.048 179.002 175.085 177.645C175.03 169.095 178.475 161.145 177.62 148.18C177.28 143.065 176.475 136.505 173.05 134.635C158.7 126.775 142.025 136.235 141.91 136.305Z" stroke="#263238" stroke-linecap="round" stroke-linejoin="round"/>
<path d="M124.165 176.325C124.165 176.325 120.63 174.06 119.695 174.15C118.76 174.24 117.52 174.95 117.195 174.98C116.87 175.01 116 174.86 115.445 175.265C115.039 175.609 114.681 176.006 114.38 176.445C113.797 176.774 113.237 177.143 112.705 177.55C111.825 178.225 109.86 181.135 109.565 181.76C109.27 182.385 109.655 182.695 110.205 182.29C110.61 181.985 112.3 180.4 113.16 179.59C113.312 179.446 113.502 179.348 113.707 179.309C113.913 179.269 114.125 179.288 114.32 179.365C115.265 179.735 116.955 180.43 117.5 180.895C118.441 181.73 119.608 182.269 120.855 182.445C122.036 182.557 123.224 182.557 124.405 182.445C124.405 182.445 126.325 180.015 125.79 178.41C125.675 177.97 125.471 177.559 125.192 177.2C124.912 176.842 124.563 176.544 124.165 176.325Z" fill="white"/>
<mask id="mask3_162_629" style="mask-type:luminance" maskUnits="userSpaceOnUse" x="109" y="174" width="17" height="9">
<path d="M124.165 176.325C124.165 176.325 120.63 174.06 119.695 174.15C118.76 174.24 117.52 174.95 117.195 174.98C116.87 175.01 116 174.86 115.445 175.265C115.039 175.609 114.681 176.006 114.38 176.445C113.797 176.774 113.237 177.143 112.705 177.55C111.825 178.225 109.86 181.135 109.565 181.76C109.27 182.385 109.655 182.695 110.205 182.29C110.61 181.985 112.3 180.4 113.16 179.59C113.312 179.446 113.502 179.348 113.707 179.309C113.913 179.269 114.125 179.288 114.32 179.365C115.265 179.735 116.955 180.43 117.5 180.895C118.441 181.73 119.608 182.269 120.855 182.445C122.036 182.557 123.224 182.557 124.405 182.445C124.405 182.445 126.325 180.015 125.79 178.41C125.675 177.97 125.471 177.559 125.192 177.2C124.912 176.842 124.563 176.544 124.165 176.325Z" fill="white"/>
</mask>
<g mask="url(#mask3_162_629)">
<path d="M147.04 165.735C145.74 169.2 143.705 172.475 140.735 174.68C138.515 176.325 135.88 177.305 133.235 178.18C130.818 178.993 128.382 179.747 125.925 180.44C125.14 180.66 124.225 180.855 123.56 180.38C123.283 180.144 123.08 179.833 122.976 179.484C122.872 179.135 122.872 178.764 122.975 178.415C123.189 177.72 123.539 177.074 124.005 176.515C123.419 176.684 122.882 176.99 122.439 177.409C121.995 177.827 121.658 178.345 121.455 178.92C121.24 179.54 121.155 180.275 120.625 180.675C120.462 180.776 120.28 180.843 120.09 180.872C119.9 180.902 119.706 180.893 119.52 180.846C119.333 180.8 119.158 180.716 119.004 180.601C118.851 180.486 118.722 180.341 118.625 180.175C118.444 179.836 118.349 179.457 118.349 179.072C118.349 178.688 118.444 178.309 118.625 177.97C118.992 177.296 119.468 176.688 120.035 176.17C119.465 175.995 118.925 176.51 118.625 177.025C118.325 177.54 118.07 178.15 117.525 178.385C116.855 178.67 116.115 178.25 115.41 178.08C114.768 177.961 114.106 178.002 113.483 178.198C112.859 178.394 112.294 178.74 111.835 179.205C110.922 180.14 110.218 181.258 109.77 182.485C110.04 181.817 110.468 181.224 111.017 180.758C111.566 180.291 112.22 179.965 112.922 179.806C113.625 179.647 114.356 179.661 115.052 179.846C115.748 180.032 116.389 180.383 116.92 180.87C117.362 181.381 117.866 181.834 118.42 182.22C119.028 182.483 119.69 182.595 120.35 182.545C126.901 182.538 133.415 181.561 139.68 179.645C142.345 178.825 145.12 177.725 146.745 175.455C148.015 173.69 148.405 171.455 148.685 169.3C148.982 167.023 149.188 164.742 149.305 162.455C149.415 160.395 149.705 158.065 149.365 156.03C148.685 159.31 148.225 162.58 147.04 165.735Z" fill="#92E3A9"/>
<path opacity="0.5" d="M147.04 165.735C145.74 169.2 143.705 172.475 140.735 174.68C138.515 176.325 135.88 177.305 133.235 178.18C130.818 178.993 128.382 179.747 125.925 180.44C125.14 180.66 124.225 180.855 123.56 180.38C123.283 180.144 123.08 179.833 122.976 179.484C122.872 179.135 122.872 178.764 122.975 178.415C123.189 177.72 123.539 177.074 124.005 176.515C123.419 176.684 122.882 176.99 122.439 177.409C121.995 177.827 121.658 178.345 121.455 178.92C121.24 179.54 121.155 180.275 120.625 180.675C120.462 180.776 120.28 180.843 120.09 180.872C119.9 180.902 119.706 180.893 119.52 180.846C119.333 180.8 119.158 180.716 119.004 180.601C118.851 180.486 118.722 180.341 118.625 180.175C118.444 179.836 118.349 179.457 118.349 179.072C118.349 178.688 118.444 178.309 118.625 177.97C118.992 177.296 119.468 176.688 120.035 176.17C119.465 175.995 118.925 176.51 118.625 177.025C118.325 177.54 118.07 178.15 117.525 178.385C116.855 178.67 116.115 178.25 115.41 178.08C114.768 177.961 114.106 178.002 113.483 178.198C112.859 178.394 112.294 178.74 111.835 179.205C110.922 180.14 110.218 181.258 109.77 182.485C110.04 181.817 110.468 181.224 111.017 180.758C111.566 180.291 112.22 179.965 112.922 179.806C113.625 179.647 114.356 179.661 115.052 179.846C115.748 180.032 116.389 180.383 116.92 180.87C117.362 181.381 117.866 181.834 118.42 182.22C119.028 182.483 119.69 182.595 120.35 182.545C126.901 182.538 133.415 181.561 139.68 179.645C142.345 178.825 145.12 177.725 146.745 175.455C148.015 173.69 148.405 171.455 148.685 169.3C148.982 167.023 149.188 164.742 149.305 162.455C149.415 160.395 149.705 158.065 149.365 156.03C148.685 159.31 148.225 162.58 147.04 165.735Z" fill="white"/>
</g>
<path d="M124.165 176.325C124.165 176.325 120.63 174.06 119.695 174.15C118.76 174.24 117.52 174.95 117.195 174.98C116.87 175.01 116 174.86 115.445 175.265C115.039 175.609 114.681 176.006 114.38 176.445C113.797 176.774 113.237 177.143 112.705 177.55C111.825 178.225 109.86 181.135 109.565 181.76C109.27 182.385 109.655 182.695 110.205 182.29C110.61 181.985 112.3 180.4 113.16 179.59C113.312 179.446 113.502 179.348 113.707 179.309C113.913 179.269 114.125 179.288 114.32 179.365C115.265 179.735 116.955 180.43 117.5 180.895C118.441 181.73 119.608 182.269 120.855 182.445C122.036 182.557 123.224 182.557 124.405 182.445C124.405 182.445 126.325 180.015 125.79 178.41C125.675 177.97 125.471 177.559 125.192 177.2C124.912 176.842 124.563 176.544 124.165 176.325Z" stroke="#263238" stroke-linecap="round" stroke-linejoin="round"/>
<path d="M149.5 146.355C149.275 142.95 146.125 136.32 142.76 135.755C141.985 136.182 141.247 136.674 140.555 137.225C139.275 138.25 138.89 140.295 138.775 144.605C138.66 148.915 139.455 158.83 138.945 167.975C138.945 168.145 126.19 175.03 123.98 176.1C121.77 177.17 120.34 179.185 121.595 181.3C122.71 183.175 125.095 182.77 127.26 182.48C130.165 182.095 143.76 179.255 146.23 176.725C151.12 171.645 149.5 146.355 149.5 146.355Z" fill="white"/>
<mask id="mask4_162_629" style="mask-type:luminance" maskUnits="userSpaceOnUse" x="121" y="135" width="29" height="48">
<path d="M149.5 146.355C149.275 142.95 146.125 136.32 142.76 135.755C141.985 136.182 141.247 136.674 140.555 137.225C139.275 138.25 138.89 140.295 138.775 144.605C138.66 148.915 139.455 158.83 138.945 167.975C138.945 168.145 126.19 175.03 123.98 176.1C121.77 177.17 120.34 179.185 121.595 181.3C122.71 183.175 125.095 182.77 127.26 182.48C130.165 182.095 143.76 179.255 146.23 176.725C151.12 171.645 149.5 146.355 149.5 146.355Z" fill="white"/>
</mask>
<g mask="url(#mask4_162_629)">
<path d="M147.04 165.735C145.74 169.2 143.705 172.475 140.735 174.68C138.515 176.325 135.88 177.305 133.235 178.18C130.818 178.993 128.382 179.747 125.925 180.44C125.14 180.66 124.225 180.855 123.56 180.38C123.283 180.144 123.08 179.833 122.976 179.484C122.872 179.135 122.872 178.764 122.975 178.415C123.189 177.72 123.539 177.074 124.005 176.515C123.419 176.684 122.882 176.99 122.439 177.409C121.995 177.827 121.658 178.345 121.455 178.92C121.24 179.54 121.155 180.275 120.625 180.675C120.462 180.776 120.28 180.843 120.09 180.872C119.9 180.902 119.706 180.893 119.52 180.846C119.333 180.8 119.158 180.716 119.004 180.601C118.851 180.486 118.722 180.341 118.625 180.175C118.444 179.836 118.349 179.457 118.349 179.072C118.349 178.688 118.444 178.309 118.625 177.97C118.992 177.296 119.468 176.688 120.035 176.17C119.465 175.995 118.925 176.51 118.625 177.025C118.325 177.54 118.07 178.15 117.525 178.385C116.855 178.67 116.115 178.25 115.41 178.08C114.768 177.961 114.106 178.002 113.483 178.198C112.859 178.394 112.294 178.74 111.835 179.205C110.922 180.14 110.218 181.258 109.77 182.485C110.04 181.817 110.468 181.224 111.017 180.758C111.566 180.291 112.22 179.965 112.922 179.806C113.625 179.647 114.356 179.661 115.052 179.846C115.748 180.032 116.389 180.383 116.92 180.87C117.362 181.381 117.866 181.834 118.42 182.22C119.028 182.483 119.69 182.595 120.35 182.545C126.901 182.538 133.415 181.561 139.68 179.645C142.345 178.825 145.12 177.725 146.745 175.455C148.015 173.69 148.405 171.455 148.685 169.3C148.982 167.023 149.188 164.742 149.305 162.455C149.415 160.395 149.705 158.065 149.365 156.03C148.685 159.31 148.225 162.58 147.04 165.735Z" fill="#92E3A9"/>
<path opacity="0.5" d="M147.04 165.735C145.74 169.2 143.705 172.475 140.735 174.68C138.515 176.325 135.88 177.305 133.235 178.18C130.818 178.993 128.382 179.747 125.925 180.44C125.14 180.66 124.225 180.855 123.56 180.38C123.283 180.144 123.08 179.833 122.976 179.484C122.872 179.135 122.872 178.764 122.975 178.415C123.189 177.72 123.539 177.074 124.005 176.515C123.419 176.684 122.882 176.99 122.439 177.409C121.995 177.827 121.658 178.345 121.455 178.92C121.24 179.54 121.155 180.275 120.625 180.675C120.462 180.776 120.28 180.843 120.09 180.872C119.9 180.902 119.706 180.893 119.52 180.846C119.333 180.8 119.158 180.716 119.004 180.601C118.851 180.486 118.722 180.341 118.625 180.175C118.444 179.836 118.349 179.457 118.349 179.072C118.349 178.688 118.444 178.309 118.625 177.97C118.992 177.296 119.468 176.688 120.035 176.17C119.465 175.995 118.925 176.51 118.625 177.025C118.325 177.54 118.07 178.15 117.525 178.385C116.855 178.67 116.115 178.25 115.41 178.08C114.768 177.961 114.106 178.002 113.483 178.198C112.859 178.394 112.294 178.74 111.835 179.205C110.922 180.14 110.218 181.258 109.77 182.485C110.04 181.817 110.468 181.224 111.017 180.758C111.566 180.291 112.22 179.965 112.922 179.806C113.625 179.647 114.356 179.661 115.052 179.846C115.748 180.032 116.389 180.383 116.92 180.87C117.362 181.381 117.866 181.834 118.42 182.22C119.028 182.483 119.69 182.595 120.35 182.545C126.901 182.538 133.415 181.561 139.68 179.645C142.345 178.825 145.12 177.725 146.745 175.455C148.015 173.69 148.405 171.455 148.685 169.3C148.982 167.023 149.188 164.742 149.305 162.455C149.415 160.395 149.705 158.065 149.365 156.03C148.685 159.31 148.225 162.58 147.04 165.735Z" fill="white"/>
</g>
<path d="M149.5 146.355C149.275 142.95 146.125 136.32 142.76 135.755C141.985 136.182 141.247 136.674 140.555 137.225C139.275 138.25 138.89 140.295 138.775 144.605C138.66 148.915 139.455 158.83 138.945 167.975C138.945 168.145 126.19 175.03 123.98 176.1C121.77 177.17 120.34 179.185 121.595 181.3C122.71 183.175 125.095 182.77 127.26 182.48C130.165 182.095 143.76 179.255 146.23 176.725C151.12 171.645 149.5 146.355 149.5 146.355Z" stroke="#263238" stroke-linecap="round" stroke-linejoin="round"/>
<path d="M174.085 116.77C176.23 112.585 174.335 107.15 171.545 103.36C166.955 97.115 157.215 95.265 149.89 96.255C146.46 96.72 143.02 98.385 141.24 101.355C139.46 104.325 139.89 108.69 142.74 110.685C145.395 112.56 149.61 112.255 151.24 115.08C152.96 118.08 150.105 121.69 150.06 125.16C150.025 127.345 151.135 129.42 151.145 131.61C151.105 131.61 168 128.685 174.085 116.77Z" fill="#263238" stroke="#263238" stroke-linecap="round" stroke-linejoin="round"/>
<path d="M124.915 175.68C124.915 175.68 124.965 176.18 122.915 174.83C120.965 173.56 115.885 178.22 117.84 181.4L118.005 181.945C118.225 182.685 119.645 182.205 120.375 182.445C121.271 182.761 122.232 182.847 123.17 182.695C124.7 182.535 120.47 180 124.915 175.68Z" fill="white"/>
<mask id="mask5_162_629" style="mask-type:luminance" maskUnits="userSpaceOnUse" x="117" y="174" width="8" height="9">
<path d="M124.915 175.68C124.915 175.68 124.965 176.18 122.915 174.83C120.965 173.56 115.885 178.22 117.84 181.4L118.005 181.945C118.225 182.685 119.645 182.205 120.375 182.445C121.271 182.761 122.232 182.847 123.17 182.695C124.7 182.535 120.47 180 124.915 175.68Z" fill="white"/>
</mask>
<g mask="url(#mask5_162_629)">
<path d="M147.04 165.735C145.74 169.2 143.705 172.475 140.735 174.68C138.515 176.325 135.88 177.305 133.235 178.18C130.818 178.993 128.382 179.747 125.925 180.44C125.14 180.66 124.225 180.855 123.56 180.38C123.283 180.144 123.08 179.833 122.976 179.484C122.872 179.135 122.872 178.764 122.975 178.415C123.189 177.72 123.539 177.074 124.005 176.515C123.419 176.684 122.882 176.99 122.439 177.409C121.995 177.827 121.658 178.345 121.455 178.92C121.24 179.54 121.155 180.275 120.625 180.675C120.462 180.776 120.28 180.843 120.09 180.872C119.9 180.902 119.706 180.893 119.52 180.846C119.333 180.8 119.158 180.716 119.004 180.601C118.851 180.486 118.722 180.341 118.625 180.175C118.444 179.836 118.349 179.457 118.349 179.072C118.349 178.688 118.444 178.309 118.625 177.97C118.992 177.296 119.468 176.688 120.035 176.17C119.465 175.995 118.925 176.51 118.625 177.025C118.325 177.54 118.07 178.15 117.525 178.385C116.855 178.67 116.115 178.25 115.41 178.08C114.768 177.961 114.106 178.002 113.483 178.198C112.859 178.394 112.294 178.74 111.835 179.205C110.922 180.14 110.218 181.258 109.77 182.485C110.04 181.817 110.468 181.224 111.017 180.758C111.566 180.291 112.22 179.965 112.922 179.806C113.625 179.647 114.356 179.661 115.052 179.846C115.748 180.032 116.389 180.383 116.92 180.87C117.362 181.381 117.866 181.834 118.42 182.22C119.028 182.483 119.69 182.595 120.35 182.545C126.901 182.538 133.415 181.561 139.68 179.645C142.345 178.825 145.12 177.725 146.745 175.455C148.015 173.69 148.405 171.455 148.685 169.3C148.982 167.023 149.188 164.742 149.305 162.455C149.415 160.395 149.705 158.065 149.365 156.03C148.685 159.31 148.225 162.58 147.04 165.735Z" fill="#92E3A9"/>
<path opacity="0.5" d="M147.04 165.735C145.74 169.2 143.705 172.475 140.735 174.68C138.515 176.325 135.88 177.305 133.235 178.18C130.818 178.993 128.382 179.747 125.925 180.44C125.14 180.66 124.225 180.855 123.56 180.38C123.283 180.144 123.08 179.833 122.976 179.484C122.872 179.135 122.872 178.764 122.975 178.415C123.189 177.72 123.539 177.074 124.005 176.515C123.419 176.684 122.882 176.99 122.439 177.409C121.995 177.827 121.658 178.345 121.455 178.92C121.24 179.54 121.155 180.275 120.625 180.675C120.462 180.776 120.28 180.843 120.09 180.872C119.9 180.902 119.706 180.893 119.52 180.846C119.333 180.8 119.158 180.716 119.004 180.601C118.851 180.486 118.722 180.341 118.625 180.175C118.444 179.836 118.349 179.457 118.349 179.072C118.349 178.688 118.444 178.309 118.625 177.97C118.992 177.296 119.468 176.688 120.035 176.17C119.465 175.995 118.925 176.51 118.625 177.025C118.325 177.54 118.07 178.15 117.525 178.385C116.855 178.67 116.115 178.25 115.41 178.08C114.768 177.961 114.106 178.002 113.483 178.198C112.859 178.394 112.294 178.74 111.835 179.205C110.922 180.14 110.218 181.258 109.77 182.485C110.04 181.817 110.468 181.224 111.017 180.758C111.566 180.291 112.22 179.965 112.922 179.806C113.625 179.647 114.356 179.661 115.052 179.846C115.748 180.032 116.389 180.383 116.92 180.87C117.362 181.381 117.866 181.834 118.42 182.22C119.028 182.483 119.69 182.595 120.35 182.545C126.901 182.538 133.415 181.561 139.68 179.645C142.345 178.825 145.12 177.725 146.745 175.455C148.015 173.69 148.405 171.455 148.685 169.3C148.982 167.023 149.188 164.742 149.305 162.455C149.415 160.395 149.705 158.065 149.365 156.03C148.685 159.31 148.225 162.58 147.04 165.735Z" fill="white"/>
</g>
<path d="M124.915 175.68C124.915 175.68 124.965 176.18 122.915 174.83C120.965 173.56 115.885 178.22 117.84 181.4L118.005 181.945C118.225 182.685 119.645 182.205 120.375 182.445C121.271 182.761 122.232 182.847 123.17 182.695C124.7 182.535 120.47 180 124.915 175.68Z" stroke="#263238" stroke-linecap="round" stroke-linejoin="round"/>
<path d="M147.465 98.73C146 100.54 146.11 103.2 146.935 105.375C147.76 107.55 149.18 109.45 150.215 111.535C151.25 113.62 152.53 115.77 151.665 117.935C152.949 113.272 153.101 108.369 152.11 103.635" stroke="#757575" stroke-linecap="round" stroke-linejoin="round"/>
<path d="M153.95 97.265C161.6 104.63 163.905 111.8 164.25 118.41" stroke="#757575" stroke-linecap="round" stroke-linejoin="round"/>
<path d="M150.075 100.92C151.927 105.604 152.509 110.694 151.76 115.675" stroke="#757575" stroke-linecap="round" stroke-linejoin="round"/>
<path d="M143.365 100.355C142.26 101.389 141.544 102.771 141.335 104.27" stroke="#757575" stroke-linecap="round" stroke-linejoin="round"/>
<path d="M145.285 99.765C144.895 100.619 144.681 101.542 144.655 102.48C144.63 103.418 144.793 104.351 145.135 105.225" stroke="#757575" stroke-linecap="round" stroke-linejoin="round"/>
<path d="M161.75 99.57C163.707 100.736 165.358 102.354 166.563 104.287C167.768 106.22 168.494 108.414 168.68 110.685" stroke="#757575" stroke-linecap="round" stroke-linejoin="round"/>
<path d="M167.29 100.875C168.195 101.469 168.94 102.276 169.46 103.225" stroke="#757575" stroke-linecap="round" stroke-linejoin="round"/>
<path d="M133.16 189.955C133.785 192.982 135.043 195.842 136.853 198.347C138.663 200.853 140.983 202.946 143.66 204.49" stroke="#263238" stroke-linecap="round" stroke-linejoin="round"/>
<path d="M136.025 188.13C136.094 189.77 136.673 191.347 137.681 192.643C138.69 193.938 140.077 194.886 141.65 195.355" stroke="#263238" stroke-linecap="round" stroke-linejoin="round"/>
<path d="M155.235 182.6L146.685 183.715C146.26 183.77 145.765 183.875 145.59 184.27C145.532 184.444 145.53 184.631 145.586 184.806C145.642 184.98 145.752 185.132 145.9 185.24C146.199 185.449 146.541 185.587 146.9 185.645C150.616 186.506 154.408 186.998 158.22 187.115" stroke="#263238" stroke-linecap="round" stroke-linejoin="round"/>
<path d="M154.565 219.23C157.297 217.944 160.203 217.066 163.19 216.625" stroke="#263238" stroke-linecap="round" stroke-linejoin="round"/>
<path d="M124.41 176C123.793 176.211 123.239 176.574 122.8 177.055C122.345 177.52 121.96 178.055 121.525 178.53C121.455 178.623 121.364 178.698 121.26 178.75C121.207 178.775 121.148 178.783 121.091 178.774C121.034 178.764 120.981 178.736 120.94 178.695C120.909 178.636 120.893 178.571 120.893 178.505C120.893 178.439 120.909 178.373 120.94 178.315C121.162 177.692 121.537 177.135 122.03 176.695" fill="white"/>
<path d="M124.41 176C123.793 176.211 123.239 176.574 122.8 177.055C122.345 177.52 121.96 178.055 121.525 178.53C121.455 178.623 121.364 178.698 121.26 178.75C121.207 178.775 121.148 178.783 121.091 178.774C121.034 178.764 120.981 178.736 120.94 178.695C120.909 178.636 120.893 178.571 120.893 178.505C120.893 178.439 120.909 178.373 120.94 178.315C121.162 177.692 121.537 177.135 122.03 176.695" stroke="#263238" stroke-linecap="round" stroke-linejoin="round"/>
<path d="M152.455 145.445L149.695 155.085L152.455 145.445Z" fill="white"/>
<path d="M152.455 145.445L149.695 155.085" stroke="#263238" stroke-linecap="round" stroke-linejoin="round"/>
<path d="M175.175 159.375C174.01 168.245 174.775 179 176.35 187.28" stroke="#263238" stroke-linecap="round" stroke-linejoin="round"/>
<path d="M175.59 156.18L175.415 157.61" stroke="#263238" stroke-linecap="round" stroke-linejoin="round"/>
<path d="M250 249H0V251H250V249Z" fill="black" fill-opacity="0.16" mask="url(#path-1-inside-1_162_629)"/>
</svg>
