<svg width="160" height="160" viewBox="0 0 160 160" fill="none" xmlns="http://www.w3.org/2000/svg">
<path d="M101.662 21.0066L39.2915 27.9474L48.9402 114.651L111.31 107.71L101.662 21.0066Z" fill="white" stroke="#263238" stroke-linecap="round" stroke-linejoin="round"/>
<path d="M101.662 21.0069L39.2915 27.9478L40.6265 39.9441L102.997 33.0033L101.662 21.0069Z" fill="#BFBFBF" stroke="#263238" stroke-linecap="round" stroke-linejoin="round"/>
<path d="M84.3328 26.5344L57.4079 29.5296C57.2828 29.5359 57.1603 29.5675 57.0478 29.6227C56.9354 29.6779 56.8353 29.7554 56.7539 29.8506C56.6724 29.9457 56.6111 30.0565 56.5739 30.1761C56.5367 30.2957 56.5242 30.4216 56.5373 30.5462C56.5503 30.6708 56.5887 30.7914 56.6499 30.9007C56.7112 31.01 56.794 31.1056 56.8935 31.1818C56.993 31.2579 57.1069 31.313 57.2284 31.3437C57.3498 31.3743 57.4763 31.3799 57.5999 31.36L84.5248 28.3648C84.7603 28.3292 84.9729 28.2037 85.118 28.0147C85.2631 27.8257 85.3293 27.5879 85.3028 27.3511C85.2763 27.1143 85.1592 26.897 84.9759 26.7448C84.7927 26.5925 84.5576 26.5171 84.3199 26.5344H84.3328Z" fill="white"/>
<path d="M78.0191 31.04L64.5599 32.5376C64.4998 32.5436 64.4415 32.5615 64.3884 32.5902C64.3353 32.619 64.2885 32.6581 64.2506 32.7051C64.2128 32.7522 64.1847 32.8064 64.168 32.8644C64.1514 32.9225 64.1464 32.9833 64.1535 33.0432C64.1664 33.1645 64.2269 33.2758 64.3217 33.3525C64.4165 33.4293 64.5378 33.4654 64.6591 33.4528L78.1215 31.9552C78.2393 31.9374 78.3456 31.8747 78.4182 31.7802C78.4907 31.6857 78.5238 31.5668 78.5106 31.4484C78.4973 31.33 78.4388 31.2213 78.3471 31.1452C78.2555 31.0691 78.138 31.0314 78.0191 31.04Z" fill="white"/>
<path opacity="0.3" d="M88.0797 41.4144L52.7997 45.3376C52.7093 45.3478 52.6267 45.3934 52.5699 45.4646C52.5132 45.5357 52.4871 45.6264 52.4973 45.7168C52.5075 45.8072 52.5531 45.8898 52.6242 45.9465C52.6954 46.0032 52.7861 46.0294 52.8765 46.0192L88.1469 42.096C88.2373 42.0858 88.3199 42.0401 88.3766 41.969C88.4333 41.8979 88.4595 41.8072 88.4493 41.7168C88.4391 41.6264 88.3934 41.5438 88.3223 41.4871C88.2512 41.4303 88.1605 41.4042 88.0701 41.4144H88.0797Z" fill="black"/>
<path opacity="0.3" d="M88.3517 43.8624L47.7884 48.3744C47.6981 48.3846 47.6154 48.4303 47.5587 48.5014C47.502 48.5725 47.4759 48.6632 47.486 48.7536C47.4962 48.844 47.5419 48.9266 47.613 48.9833C47.6841 49.04 47.7749 49.0662 47.8652 49.056L88.4284 44.544C88.4746 44.5412 88.5198 44.5291 88.5611 44.5084C88.6025 44.4877 88.6392 44.4589 88.6691 44.4236C88.699 44.3883 88.7215 44.3473 88.7351 44.3031C88.7488 44.2589 88.7533 44.2124 88.7484 44.1664C88.7434 44.12 88.729 44.075 88.706 44.0343C88.6831 43.9936 88.6522 43.9579 88.6151 43.9295C88.578 43.9011 88.5355 43.8805 88.4902 43.869C88.445 43.8574 88.3978 43.8552 88.3517 43.8624Z" fill="black"/>
<path opacity="0.3" d="M78.038 47.488L48.0604 50.8224C47.97 50.8326 47.8874 50.8783 47.8307 50.9494C47.774 51.0205 47.7478 51.1112 47.758 51.2016C47.7682 51.292 47.8139 51.3746 47.885 51.4314C47.9561 51.4881 48.0468 51.5142 48.1372 51.504L78.1116 48.1696C78.1578 48.1669 78.2029 48.1548 78.2443 48.1341C78.2857 48.1134 78.3224 48.0845 78.3523 48.0492C78.3822 48.0139 78.4047 47.9729 78.4183 47.9287C78.4319 47.8845 78.4365 47.838 78.4316 47.792C78.4265 47.7459 78.4122 47.7013 78.3895 47.6608C78.3667 47.6203 78.3361 47.5848 78.2994 47.5565C78.2626 47.5281 78.2206 47.5074 78.1757 47.4956C78.1308 47.4839 78.0839 47.4813 78.038 47.488Z" fill="black"/>
<path opacity="0.3" d="M97.025 40.1141L93.4471 40.5123C92.9658 40.5658 92.6191 40.9994 92.6727 41.4807L93.0708 45.0586C93.1244 45.5399 93.5579 45.8866 94.0392 45.833L97.6171 45.4349C98.0984 45.3813 98.4451 44.9477 98.3916 44.4665L97.9934 40.8886C97.9398 40.4073 97.5063 40.0606 97.025 40.1141Z" stroke="#263238" stroke-linecap="round" stroke-linejoin="round"/>
<path d="M94.083 42.864L95.2606 43.9744L96.8094 41.6031" stroke="#71CB90" stroke-width="3" stroke-linecap="round" stroke-linejoin="round"/>
<path opacity="0.3" d="M89.3694 53.0112L54.099 56.9344C54.0086 56.9446 53.926 56.9902 53.8693 57.0614C53.8125 57.1325 53.7864 57.2232 53.7966 57.3136C53.8068 57.404 53.8524 57.4866 53.9236 57.5433C53.9947 57.6 54.0854 57.6262 54.1758 57.616L89.4462 53.6928C89.4909 53.6877 89.5343 53.6739 89.5737 53.6522C89.6131 53.6304 89.6478 53.601 89.6759 53.5658C89.704 53.5306 89.7249 53.4902 89.7373 53.4469C89.7498 53.4037 89.7536 53.3583 89.7486 53.3136C89.7435 53.2688 89.7297 53.2255 89.708 53.1861C89.6862 53.1467 89.6568 53.1119 89.6216 53.0839C89.5864 53.0558 89.546 53.0349 89.5027 53.0224C89.4594 53.01 89.4141 53.0061 89.3694 53.0112Z" fill="black"/>
<path opacity="0.3" d="M89.6417 55.4592L49.0785 59.9712C49.0337 59.9762 48.9904 59.99 48.951 60.0118C48.9116 60.0336 48.8768 60.0629 48.8487 60.0982C48.8207 60.1334 48.7998 60.1738 48.7873 60.2171C48.7749 60.2603 48.771 60.3056 48.7761 60.3504C48.7811 60.3951 48.7949 60.4385 48.8167 60.4779C48.8385 60.5173 48.8678 60.552 48.9031 60.5801C48.9383 60.6082 48.9787 60.6291 49.0219 60.6415C49.0652 60.654 49.1105 60.6578 49.1553 60.6528L89.7185 56.1408C89.8089 56.1306 89.8915 56.0849 89.9482 56.0138C90.0049 55.9427 90.0311 55.852 90.0209 55.7616C90.0107 55.6712 89.965 55.5886 89.8939 55.5319C89.8228 55.4751 89.7321 55.449 89.6417 55.4592Z" fill="black"/>
<path opacity="0.3" d="M79.3281 59.0848L49.3505 62.4192C49.2601 62.4294 49.1774 62.4751 49.1207 62.5462C49.064 62.6173 49.0379 62.708 49.0481 62.7984C49.0582 62.8888 49.1039 62.9714 49.175 63.0282C49.2461 63.0849 49.3369 63.111 49.4273 63.1008L79.4017 59.7664C79.4478 59.7637 79.493 59.7516 79.5343 59.7309C79.5757 59.7102 79.6124 59.6813 79.6424 59.646C79.6723 59.6107 79.6947 59.5697 79.7083 59.5255C79.722 59.4813 79.7265 59.4348 79.7217 59.3888C79.7166 59.3427 79.7022 59.2981 79.6795 59.2576C79.6568 59.2171 79.6261 59.1816 79.5894 59.1533C79.5527 59.1249 79.5106 59.1042 79.4657 59.0924C79.4208 59.0807 79.374 59.0781 79.3281 59.0848Z" fill="black"/>
<path opacity="0.3" d="M98.3155 51.7084L94.7376 52.1065C94.2564 52.1601 93.9096 52.5936 93.9632 53.0749L94.3614 56.6528C94.4149 57.1341 94.8485 57.4808 95.3297 57.4273L98.9077 57.0291C99.3889 56.9756 99.7357 56.542 99.6821 56.0607L99.2839 52.4828C99.2304 52.0015 98.7968 51.6548 98.3155 51.7084Z" stroke="#263238" stroke-linecap="round" stroke-linejoin="round"/>
<path d="M95.376 54.4608L96.5504 55.5712L98.0992 53.2" stroke="#71CB90" stroke-width="3" stroke-linecap="round" stroke-linejoin="round"/>
<path opacity="0.3" d="M90.6588 64.6079L55.3884 68.5312C55.3038 68.5475 55.2284 68.5951 55.1773 68.6646C55.1263 68.734 55.1033 68.8202 55.113 68.9059C55.1227 68.9915 55.1644 69.0704 55.2297 69.1267C55.295 69.183 55.3791 69.2126 55.4652 69.2095L90.7356 65.2799C90.7804 65.2749 90.8237 65.2611 90.8631 65.2393C90.9025 65.2175 90.9373 65.1882 90.9654 65.153C90.9934 65.1178 91.0143 65.0774 91.0268 65.0341C91.0392 64.9908 91.0431 64.9455 91.038 64.9007C91.033 64.856 91.0192 64.8127 90.9974 64.7733C90.9756 64.7338 90.9463 64.6991 90.9111 64.671C90.8758 64.6429 90.8354 64.6221 90.7922 64.6096C90.7489 64.5971 90.7036 64.5933 90.6588 64.5983V64.6079Z" fill="black"/>
<path opacity="0.3" d="M90.9344 67.056L50.368 71.568C50.3232 71.5724 50.2797 71.5857 50.2401 71.6072C50.2006 71.6287 50.1657 71.6579 50.1376 71.6931C50.1096 71.7284 50.0889 71.7689 50.0768 71.8122C50.0647 71.8556 50.0615 71.901 50.0672 71.9456C50.072 71.9904 50.0856 72.0338 50.1072 72.0733C50.1287 72.1129 50.1579 72.1477 50.193 72.176C50.228 72.2042 50.2684 72.2253 50.3116 72.2379C50.3548 72.2505 50.4001 72.2545 50.4448 72.2496L91.008 67.7376C91.0543 67.7345 91.0995 67.722 91.1409 67.7009C91.1823 67.6799 91.219 67.6507 91.2489 67.6152C91.2788 67.5797 91.3012 67.5385 91.3148 67.4941C91.3284 67.4497 91.3329 67.403 91.328 67.3568C91.323 67.3108 91.3086 67.2663 91.2859 67.226C91.2631 67.1856 91.2324 67.1503 91.1956 67.1222C91.1588 67.0941 91.1167 67.0737 91.0718 67.0624C91.0269 67.051 90.9802 67.0488 90.9344 67.056Z" fill="black"/>
<path opacity="0.3" d="M80.6176 70.6816L50.64 74.016C50.5496 74.0262 50.467 74.0718 50.4103 74.1429C50.3536 74.2141 50.3274 74.3048 50.3376 74.3952C50.3478 74.4856 50.3935 74.5682 50.4646 74.6249C50.5357 74.6816 50.6264 74.7078 50.7168 74.6976L80.6912 71.36C80.7816 71.3502 80.8644 71.3049 80.9214 71.2341C80.9784 71.1633 81.005 71.0728 80.9952 70.9824C80.9854 70.892 80.9402 70.8092 80.8694 70.7522C80.7986 70.6952 80.708 70.6686 80.6176 70.6784V70.6816Z" fill="black"/>
<path opacity="0.3" d="M99.6061 63.3026L96.0282 63.7008C95.5469 63.7543 95.2002 64.1879 95.2537 64.6691L95.6519 68.2471C95.7054 68.7283 96.139 69.0751 96.6203 69.0215L100.198 68.6233C100.679 68.5698 101.026 68.1362 100.973 67.6549L100.574 64.077C100.521 63.5958 100.087 63.249 99.6061 63.3026Z" stroke="#263238" stroke-linecap="round" stroke-linejoin="round"/>
<path d="M96.6655 66.0576L97.8399 67.168L99.3919 64.7936" stroke="#71CB90" stroke-width="3" stroke-linecap="round" stroke-linejoin="round"/>
<path opacity="0.3" d="M91.9489 76.2048L56.6785 80.128C56.5938 80.1443 56.5184 80.192 56.4674 80.2614C56.4163 80.3309 56.3934 80.4171 56.4031 80.5027C56.4128 80.5884 56.4544 80.6672 56.5197 80.7235C56.585 80.7798 56.6691 80.8094 56.7553 80.8064L92.0257 76.8832C92.0728 76.8815 92.1192 76.8702 92.1617 76.8497C92.2043 76.8293 92.2422 76.8003 92.273 76.7646C92.3038 76.7288 92.3269 76.6871 92.3409 76.642C92.3548 76.5969 92.3592 76.5494 92.3539 76.5025C92.3486 76.4556 92.3336 76.4103 92.31 76.3694C92.2863 76.3286 92.2545 76.2931 92.2165 76.2651C92.1784 76.2372 92.135 76.2174 92.089 76.207C92.0429 76.1966 91.9952 76.1959 91.9489 76.2048Z" fill="black"/>
<path opacity="0.3" d="M92.224 78.6528L51.6576 83.1648C51.6128 83.1692 51.5693 83.1825 51.5297 83.204C51.4901 83.2255 51.4553 83.2547 51.4272 83.2899C51.3991 83.3251 51.3784 83.3656 51.3663 83.409C51.3543 83.4524 51.351 83.4978 51.3568 83.5424C51.3616 83.5872 51.3751 83.6306 51.3967 83.6701C51.4183 83.7096 51.4475 83.7445 51.4825 83.7727C51.5176 83.801 51.5579 83.822 51.6011 83.8347C51.6443 83.8473 51.6896 83.8513 51.7344 83.8464L92.2976 79.3344C92.3883 79.324 92.4712 79.2781 92.5281 79.2067C92.5851 79.1354 92.6115 79.0444 92.6016 78.9536C92.5911 78.8638 92.5456 78.7817 92.4748 78.7253C92.4041 78.669 92.3139 78.6429 92.224 78.6528Z" fill="black"/>
<path opacity="0.3" d="M81.9199 82.2784L51.9423 85.6128C51.8974 85.6172 51.8539 85.6305 51.8144 85.652C51.7748 85.6735 51.7399 85.7027 51.7119 85.7379C51.6838 85.7731 51.6631 85.8136 51.651 85.857C51.6389 85.9004 51.6357 85.9458 51.6415 85.9904C51.6462 86.0352 51.6598 86.0786 51.6814 86.1181C51.703 86.1576 51.7321 86.1925 51.7672 86.2208C51.8023 86.249 51.8426 86.27 51.8858 86.2827C51.929 86.2953 51.9743 86.2993 52.0191 86.2944L81.9935 82.96C82.0382 82.9552 82.0816 82.9417 82.1211 82.9201C82.1607 82.8985 82.1955 82.8694 82.2238 82.8343C82.252 82.7992 82.2731 82.7589 82.2857 82.7157C82.2983 82.6725 82.3023 82.6272 82.2975 82.5824C82.2931 82.5375 82.2798 82.4939 82.2583 82.4542C82.2369 82.4144 82.2077 82.3794 82.1726 82.351C82.1374 82.3227 82.0969 82.3017 82.0535 82.2893C82.0101 82.2768 81.9647 82.2731 81.9199 82.2784Z" fill="black"/>
<path opacity="0.3" d="M100.897 74.9L97.3187 75.2982C96.8374 75.3517 96.4907 75.7853 96.5442 76.2666L96.9424 79.8445C96.996 80.3257 97.4295 80.6725 97.9108 80.6189L101.489 80.2208C101.97 80.1672 102.317 79.7336 102.263 79.2524L101.865 75.6744C101.811 75.1932 101.378 74.8464 100.897 74.9Z" stroke="#263238" stroke-linecap="round" stroke-linejoin="round"/>
<path d="M97.9551 77.6512L99.1295 78.7616L100.681 76.3904" stroke="#71CB90" stroke-width="3" stroke-linecap="round" stroke-linejoin="round"/>
<path opacity="0.3" d="M93.2414 87.7984L57.971 91.7216C57.9263 91.7264 57.8829 91.74 57.8434 91.7616C57.8039 91.7832 57.769 91.8124 57.7408 91.8474C57.7126 91.8825 57.6915 91.9228 57.6789 91.966C57.6662 92.0092 57.6622 92.0544 57.667 92.0992C57.6719 92.144 57.6855 92.1873 57.707 92.2268C57.7286 92.2663 57.7578 92.3012 57.7929 92.3294C57.8279 92.3576 57.8682 92.3787 57.9114 92.3913C57.9546 92.404 57.9999 92.408 58.0446 92.4032L93.315 88.48C93.3598 88.4752 93.4032 88.4616 93.4427 88.4401C93.4822 88.4185 93.5171 88.3893 93.5453 88.3543C93.5736 88.3192 93.5946 88.2789 93.6073 88.2357C93.6199 88.1924 93.6239 88.1472 93.619 88.1024C93.6086 88.0123 93.5631 87.93 93.4925 87.8731C93.4218 87.8162 93.3317 87.7894 93.2414 87.7984Z" fill="black"/>
<path opacity="0.3" d="M93.5135 90.24L52.9471 94.752C52.8999 94.7537 52.8536 94.765 52.811 94.7855C52.7685 94.8059 52.7306 94.8349 52.6998 94.8706C52.669 94.9064 52.6459 94.9481 52.6319 94.9932C52.618 95.0383 52.6136 95.0858 52.6189 95.1327C52.6242 95.1796 52.6391 95.2249 52.6628 95.2658C52.6864 95.3066 52.7183 95.3421 52.7563 95.3701C52.7944 95.398 52.8378 95.4178 52.8838 95.4282C52.9299 95.4386 52.9776 95.4393 53.0239 95.4304L93.5871 90.9184C93.6345 90.9173 93.6811 90.9063 93.724 90.8862C93.767 90.8661 93.8052 90.8374 93.8365 90.8017C93.8677 90.7661 93.8912 90.7243 93.9054 90.6791C93.9197 90.6339 93.9244 90.5863 93.9193 90.5392C93.9142 90.4921 93.8994 90.4465 93.8757 90.4054C93.8521 90.3644 93.8202 90.3286 93.7821 90.3005C93.7439 90.2724 93.7004 90.2525 93.6541 90.2421C93.6079 90.2317 93.56 90.231 93.5135 90.24Z" fill="black"/>
<path opacity="0.3" d="M83.1996 93.8752L53.222 97.2096C53.1317 97.2198 53.049 97.2655 52.9923 97.3366C52.9356 97.4077 52.9095 97.4984 52.9196 97.5888C52.9298 97.6792 52.9755 97.7618 53.0466 97.8185C53.1177 97.8753 53.2085 97.9014 53.2988 97.8912L83.2764 94.5568C83.3665 94.5456 83.4486 94.4993 83.5049 94.4281C83.5612 94.3568 83.5872 94.2663 83.5772 94.176C83.5725 94.1314 83.5589 94.0881 83.5373 94.0487C83.5156 94.0094 83.4864 93.9747 83.4513 93.9467C83.4162 93.9187 83.3758 93.898 83.3326 93.8857C83.2894 93.8734 83.2442 93.8699 83.1996 93.8752Z" fill="black"/>
<path opacity="0.3" d="M102.187 86.4975L98.6092 86.8956C98.1279 86.9492 97.7812 87.3828 97.8348 87.864L98.2329 91.4419C98.2865 91.9232 98.7201 92.2699 99.2013 92.2164L102.779 91.8182C103.261 91.7647 103.607 91.3311 103.554 90.8498L103.156 87.2719C103.102 86.7906 102.668 86.4439 102.187 86.4975Z" stroke="#263238" stroke-linecap="round" stroke-linejoin="round"/>
<path d="M99.2446 89.248L100.419 90.3584L101.971 87.9872" stroke="#71CB90" stroke-width="3" stroke-linecap="round" stroke-linejoin="round"/>
<path opacity="0.3" d="M94.2239 96.64L58.9535 100.57C58.8631 100.58 58.7805 100.625 58.7237 100.697C58.667 100.768 58.6409 100.858 58.6511 100.949C58.6613 101.039 58.7069 101.122 58.7781 101.179C58.8492 101.235 58.9399 101.261 59.0303 101.251L94.3007 97.328C94.3455 97.3237 94.389 97.3104 94.4286 97.2889C94.4682 97.2674 94.503 97.2382 94.5311 97.2029C94.5591 97.1677 94.5798 97.1272 94.5919 97.0838C94.604 97.0404 94.6073 96.9951 94.6015 96.9504C94.5975 96.9051 94.5845 96.861 94.5633 96.8207C94.542 96.7805 94.513 96.7449 94.4778 96.716C94.4427 96.6871 94.4021 96.6655 94.3585 96.6524C94.3149 96.6394 94.2691 96.6352 94.2239 96.64Z" fill="black"/>
<path opacity="0.3" d="M94.496 99.0976L53.9328 103.61C53.8854 103.611 53.8388 103.622 53.7959 103.642C53.753 103.662 53.7147 103.691 53.6835 103.726C53.6522 103.762 53.6288 103.804 53.6145 103.849C53.6002 103.894 53.5955 103.942 53.6006 103.989C53.6057 104.036 53.6206 104.082 53.6442 104.123C53.6678 104.164 53.6997 104.199 53.7378 104.228C53.776 104.256 53.8196 104.276 53.8658 104.286C53.912 104.296 53.9599 104.297 54.0064 104.288L94.5728 99.776C94.6575 99.7597 94.7329 99.7121 94.7839 99.6426C94.835 99.5731 94.8579 99.487 94.8482 99.4013C94.8385 99.3156 94.7969 99.2368 94.7316 99.1805C94.6663 99.1242 94.5822 99.0946 94.496 99.0976Z" fill="black"/>
<path opacity="0.3" d="M84.1789 102.72L54.2045 106.054C54.1597 106.059 54.1163 106.073 54.0768 106.094C54.0372 106.116 54.0024 106.145 53.9741 106.18C53.9459 106.215 53.9248 106.256 53.9122 106.299C53.8996 106.342 53.8956 106.387 53.9005 106.432C53.9109 106.523 53.9568 106.606 54.0282 106.663C54.0995 106.719 54.1905 106.746 54.2813 106.736L84.2557 103.402C84.3004 103.397 84.3437 103.383 84.3832 103.361C84.4226 103.339 84.4573 103.31 84.4854 103.275C84.5135 103.239 84.5343 103.199 84.5468 103.156C84.5593 103.112 84.5631 103.067 84.5581 103.022C84.553 102.978 84.5392 102.934 84.5174 102.895C84.4956 102.855 84.4663 102.821 84.4311 102.793C84.3959 102.765 84.3555 102.744 84.3122 102.731C84.2689 102.719 84.2236 102.715 84.1789 102.72Z" fill="black"/>
<path opacity="0.3" d="M103.172 95.3422L99.5946 95.7404C99.1133 95.7939 98.7666 96.2275 98.8201 96.7088L99.2183 100.287C99.2718 100.768 99.7054 101.115 100.187 101.061L103.765 100.663C104.246 100.609 104.593 100.176 104.539 99.6946L104.141 96.1166C104.087 95.6354 103.654 95.2886 103.172 95.3422Z" stroke="#263238" stroke-linecap="round" stroke-linejoin="round"/>
<path d="M100.227 98.096L101.401 99.2064L102.953 96.8352" stroke="#71CB90" stroke-width="3" stroke-linecap="round" stroke-linejoin="round"/>
<path d="M64.8996 74.0065C64.9305 73.6386 64.8394 73.2709 64.6404 72.96L64.2468 72.2625L63.466 72.704L63.8916 73.4528C64.1028 73.8272 64.0164 74.0576 63.754 74.2048C63.4916 74.352 63.2484 74.3136 63.0372 73.9392L62.1252 72.32L61.146 72.5121L62.1892 74.3521C62.666 75.1937 63.3572 75.4337 64.1668 74.9921C64.2955 74.9182 64.4148 74.829 64.522 74.7265C64.4765 74.621 64.4685 74.5031 64.4994 74.3925C64.5302 74.2819 64.5981 74.1851 64.6916 74.1184C64.7543 74.07 64.8246 74.0321 64.8996 74.0065Z" fill="#71CB90"/>
<path d="M60.6431 71.6256L60.8287 71.9456H61.9072L61.4367 71.1136C61.2255 70.7392 61.3087 70.5024 61.5711 70.3552C61.8335 70.208 62.0799 70.2528 62.2911 70.6304L62.6111 71.1904L63.3887 70.7488L63.1007 70.24C62.6239 69.4016 61.9327 69.1584 61.1231 69.6192C60.9373 69.7194 60.7722 69.8541 60.6367 70.016C60.8206 70.0751 61.0133 70.1022 61.2063 70.096L60.4383 70.384C60.3821 70.5936 60.3712 70.8128 60.4065 71.027C60.4419 71.2411 60.5225 71.4452 60.6431 71.6256Z" fill="#71CB90"/>
<path d="M66.6241 68.2144C66.7267 68.1631 66.8338 68.1213 66.9441 68.0896C67.3569 67.904 67.4497 67.3088 67.4145 66.8896L66.9889 66.3616L65.8433 67.0016L66.5601 68.2624C66.5788 68.2432 66.6004 68.227 66.6241 68.2144Z" fill="#71CB90"/>
<path d="M71.5044 70.7199L72.282 70.2783L69.3092 65.0367L68.57 65.4527C68.8068 65.5103 68.9764 65.6223 68.9828 65.7951C68.7524 65.8271 68.4708 65.7951 68.2212 65.8399L69.7188 69.7215L67.8244 67.3599C67.8295 67.4122 67.8217 67.465 67.8016 67.5136C67.7815 67.5621 67.7498 67.605 67.7092 67.6383C67.6228 67.6991 67.498 67.6991 67.4308 67.7791C67.3636 67.8591 67.3732 67.9551 67.3156 68.0255C67.258 68.0959 67.1684 68.1151 67.098 68.1663C67.0276 68.2175 66.9508 68.3487 66.8708 68.4351C66.8322 68.4758 66.7837 68.5056 66.73 68.5215L68.8356 72.2335L69.5524 71.8239L67.45 68.1183L70.1508 71.4847L70.9316 71.0431L69.354 66.9695L71.5044 70.7199Z" fill="#71CB90"/>
<path d="M73.472 66.1568C73.5289 66.1852 73.5794 66.2248 73.6207 66.2732C73.6619 66.3215 73.693 66.3777 73.712 66.4384C73.7793 66.043 73.6935 65.6368 73.472 65.3024L73.0848 64.6176C72.608 63.7792 71.9456 63.552 71.12 64.0192L69.9072 64.7072L72.8832 69.952L73.6544 69.5136C73.4048 69.3568 73.1264 69.2224 72.8896 69.0528C72.7785 68.9818 72.6871 68.8838 72.624 68.768C72.5941 68.7095 72.5818 68.6436 72.5886 68.5783C72.5954 68.513 72.6211 68.451 72.6624 68.4C72.7166 68.3543 72.7827 68.3249 72.8529 68.3153C72.9232 68.3056 72.9947 68.3161 73.0592 68.3456L72.5888 67.5136L72.9792 67.2928C73.1938 67.1764 73.3805 67.0148 73.5264 66.8192C73.3632 66.56 73.0784 66.0096 73.472 66.1568ZM72.5536 66.56L72.1632 66.7808L71.1552 65.0048L71.5456 64.784C71.808 64.6368 72.0192 64.6752 72.2304 65.0496L72.6784 65.8368C72.8896 66.1952 72.816 66.3968 72.5536 66.56Z" fill="#71CB90"/>
<path d="M77.8852 67.1136L77.4628 66.3648L76.106 67.1328L74.122 63.6352L74.0324 63.7056C73.9745 63.7593 73.9041 63.7978 73.8276 63.8176C73.789 63.8262 73.7487 63.8206 73.714 63.8018C73.6792 63.783 73.6525 63.7522 73.6388 63.7152C73.6277 63.6656 73.6277 63.6143 73.6388 63.5648C73.6393 63.267 73.5452 62.9768 73.37 62.736L72.73 63.1072L75.7028 68.3488L77.8852 67.1136Z" fill="#71CB90"/>
<path d="M77.5135 65.28C77.6031 65.0464 77.8815 64.96 78.0383 64.7488C78.0523 64.7271 78.0652 64.7046 78.0767 64.6816L77.7567 64.144L78.5663 63.6864C78.5515 63.6353 78.5252 63.5882 78.4895 63.5488C78.3734 63.492 78.2493 63.4532 78.1215 63.4336C78.1018 63.3938 78.0918 63.3498 78.0925 63.3054C78.0932 63.261 78.1045 63.2174 78.1255 63.1782C78.1465 63.1391 78.1766 63.1055 78.2132 63.0804C78.2498 63.0552 78.2919 63.0391 78.3359 63.0336C78.3903 63.0336 78.4543 63.0336 78.4959 63.008C78.5251 62.9731 78.54 62.9285 78.5375 62.8832L78.4639 62.7552L77.3311 63.3952L76.5055 61.936L77.9263 61.1264L77.5007 60.3776L75.2607 61.6576L77.4623 65.5392C77.4662 65.4507 77.4834 65.3633 77.5135 65.28Z" fill="#71CB90"/>
<path d="M80.4931 65.6352L80.0675 64.8864L78.6435 65.6927L78.2179 64.96L77.6931 65.4527L77.5107 65.6287L78.2467 66.9248L80.4931 65.6352Z" fill="#71CB90"/>
<path d="M79.4339 59.5456C79.4339 59.6576 79.3539 59.7824 79.2451 59.792C79.1897 59.7913 79.1348 59.7827 79.0819 59.7664C78.9829 59.7682 78.8842 59.7585 78.7875 59.7376C78.7665 59.729 78.7471 59.7171 78.7299 59.7024L77.7891 60.2368L78.2147 60.9888L79.0755 60.4992L81.6355 64.9792L82.4579 64.512L79.8979 60.032L80.7619 59.5424L80.3363 58.7936L79.4531 59.2928C79.4371 59.376 79.4435 59.4624 79.4339 59.5456Z" fill="#71CB90"/>
<path d="M83.0276 62.72L83.6676 63.8496L84.5316 63.36C84.552 63.3033 84.5777 63.2487 84.6084 63.1968C84.7986 62.9189 85.0548 62.6924 85.354 62.5376L85.7508 62.2912L85.4884 61.824L84.0644 62.6336L83.194 61.0976L84.3268 60.4576L83.9012 59.7088L82.7684 60.3488L81.9428 58.88L83.3668 58.0736L82.9412 57.3248L80.7012 58.6048L82.3172 61.456C82.7076 61.248 82.9028 61.9968 83.0276 62.72Z" fill="#71CB90"/>
<path d="M66.4546 73.0752C66.589 73.0976 66.669 73.232 66.7746 73.3216C66.813 73.357 66.8575 73.3852 66.9058 73.4048C66.9671 73.3804 67.0269 73.3526 67.085 73.3216C67.8914 72.864 68.061 72.1344 67.5874 71.2928L67.5394 71.2096L66.4322 71.1808L66.7938 71.8208C67.005 72.1952 66.9218 72.432 66.6594 72.5792C66.397 72.7264 66.1506 72.6784 65.9394 72.304L64.3394 69.472C64.125 69.0976 64.2114 68.864 64.4738 68.7136C64.7362 68.5632 64.9794 68.6144 65.1938 68.9888L66.2786 70.9088C66.6116 70.8263 66.9532 70.7834 67.2962 70.7808L66.045 68.576C65.5714 67.7376 64.8578 67.5104 64.0482 67.968C63.2386 68.4256 63.069 69.1584 63.5458 69.9968L65.0914 72.7232C65.1891 72.9334 65.3351 73.1174 65.5175 73.2604C65.7 73.4033 65.9136 73.501 66.141 73.5456C66.1393 73.5264 66.1393 73.5072 66.141 73.488C66.1026 73.28 66.2562 73.0368 66.4546 73.0752Z" fill="#71CB90"/>
<path d="M77.504 58.0256L80.016 56.6016C79.296 56.8 78.6624 57.4016 77.92 57.3184C77.7858 57.2831 77.6447 57.2831 77.5104 57.3184C77.4265 57.3725 77.3661 57.4562 77.3412 57.5529C77.3163 57.6495 77.3287 57.7521 77.376 57.84C77.4084 57.9083 77.4517 57.971 77.504 58.0256Z" fill="#71CB90"/>
<path d="M71.2031 61.6C71.1976 61.5447 71.2087 61.4889 71.2351 61.44C71.2969 61.4615 71.3618 61.4723 71.4271 61.472L72.2943 60.9824C72.4301 60.8289 72.5849 60.6934 72.7551 60.5792C72.9195 60.4913 73.0934 60.4226 73.2735 60.3744L73.4655 60.3168L75.0655 59.4144C75.0824 59.3817 75.1052 59.3524 75.1327 59.328C75.1575 59.3115 75.1844 59.2986 75.2127 59.2896L73.5615 58.7904L73.1167 59.04L73.0687 59.392L71.1647 60.4096C70.9762 60.5273 70.7664 60.6067 70.5471 60.6432C70.4653 60.6528 70.3826 60.6528 70.3007 60.6432L67.5871 62.1824C67.6087 62.311 67.6452 62.4367 67.6959 62.5568C67.5367 62.5272 67.3853 62.4651 67.2511 62.3744L66.6943 62.6944C67.0911 62.9568 67.4815 63.2256 67.8623 63.5104L71.2031 61.6Z" fill="#71CB90"/>
<path d="M82.8195 55.0144L81.5075 54.2784L80.8867 54.6304C81.2525 55.0066 81.725 55.2613 82.2403 55.36L82.8195 55.0144Z" fill="#71CB90"/>
<path d="M89.8754 62.7616L84.9218 54.0288C84.7291 53.6911 84.4107 53.4433 84.036 53.3396C83.6612 53.2359 83.2607 53.2846 82.9218 53.4752L82.3266 53.8144L82.5538 54.0352C82.7906 54.272 83.0338 54.512 83.2546 54.7648L83.5554 54.5952C83.5971 54.5719 83.6463 54.5659 83.6923 54.5785C83.7384 54.591 83.7777 54.6212 83.8018 54.6624L88.7586 63.3984C88.7816 63.4405 88.7871 63.4899 88.774 63.536C88.7608 63.5821 88.73 63.6212 88.6882 63.6448L81.9458 67.4848C82.5282 67.52 83.117 67.4368 83.6994 67.504C83.9092 67.5304 84.1175 67.5678 84.3234 67.616L89.3218 64.7808C89.4916 64.6854 89.6407 64.5572 89.7606 64.4038C89.8805 64.2503 89.9687 64.0746 90.0202 63.8868C90.0717 63.699 90.0854 63.5028 90.0606 63.3097C90.0357 63.1165 89.9728 62.9302 89.8754 62.7616Z" fill="#71CB90"/>
<path d="M59.5202 73.8752L57.1906 69.76C57.1785 69.7392 57.1707 69.7163 57.1676 69.6925C57.1645 69.6686 57.1661 69.6445 57.1723 69.6213C57.1786 69.5981 57.1893 69.5763 57.204 69.5573C57.2187 69.5383 57.2369 69.5224 57.2578 69.5104L63.9778 65.696C63.9554 65.6448 63.9266 65.5936 63.9074 65.5424C64.0023 65.5385 64.0973 65.5492 64.189 65.5744L66.9058 64.0352C66.8162 64.0064 66.7298 63.9712 66.6434 63.9392L65.3634 63.4304L64.3394 64.0128L65.453 64.6944C65.0658 64.4576 64.2754 64.4256 63.5938 64.4352L56.6402 68.3936C56.3018 68.5857 56.0535 68.9042 55.9497 69.2791C55.8459 69.6541 55.8951 70.0549 56.0866 70.3936L58.109 73.9584C58.2018 73.9328 58.2978 73.9104 58.3906 73.8944C58.6469 73.8575 58.9062 73.8447 59.165 73.856C59.2837 73.8552 59.4023 73.8616 59.5202 73.8752Z" fill="#71CB90"/>
<path d="M67.821 75.4816C67.935 75.5837 68.0646 75.6669 68.205 75.7279C68.349 75.7919 68.541 75.9455 68.429 76.0479C67.9106 76.2847 67.2706 76.1087 66.7618 76.3679C66.4834 76.5023 66.2146 76.7679 65.917 76.6879C66.277 76.9065 66.6008 77.1796 66.877 77.4975L79.5842 70.2912C79.5842 70.24 79.6002 70.1888 79.6098 70.1344C79.6101 70.0336 79.6334 69.9343 79.6778 69.8439C79.7223 69.7536 79.7868 69.6745 79.8664 69.6128C79.946 69.5511 80.0386 69.5084 80.1372 69.4878C80.2358 69.4673 80.3378 69.4695 80.4354 69.4944C80.6002 69.4871 80.7652 69.5044 80.925 69.5456L82.509 68.6464C82.2916 68.2718 82.0341 67.922 81.741 67.6031L67.821 75.4816Z" fill="#71CB90"/>
<path d="M65.7636 77.5968C65.4571 77.4974 65.1748 77.335 64.9348 77.12L62.4004 78.56C62.3798 78.572 62.3571 78.5797 62.3336 78.5828C62.31 78.5859 62.286 78.5843 62.2631 78.578C62.2402 78.5718 62.2187 78.561 62.2 78.5464C62.1812 78.5318 62.1656 78.5136 62.154 78.4928L59.914 74.5664C59.6993 74.4922 59.471 74.466 59.2452 74.4896C58.986 74.5408 58.7588 74.8416 58.8996 75.0624C59.0319 75.0658 59.1609 75.1044 59.2734 75.1741C59.3858 75.2438 59.4777 75.3422 59.5396 75.4592C59.4016 75.569 59.2499 75.6604 59.0884 75.7312L61.0084 79.1264C61.1038 79.2979 61.2325 79.4486 61.3869 79.5696C61.5414 79.6906 61.7185 79.7795 61.9078 79.8311C62.0971 79.8827 62.2949 79.8959 62.4893 79.8699C62.6838 79.844 62.8712 79.7794 63.0404 79.68L66.362 77.7952L66.3236 77.7728C66.1402 77.7041 65.9533 77.6454 65.7636 77.5968Z" fill="#71CB90"/>
<g opacity="0.2">
<path d="M64.8996 74.0065C64.9305 73.6386 64.8394 73.2709 64.6404 72.96L64.2468 72.2625L63.466 72.704L63.8916 73.4528C64.1028 73.8272 64.0164 74.0576 63.754 74.2048C63.4916 74.352 63.2484 74.3136 63.0372 73.9392L62.1252 72.32L61.146 72.5121L62.1892 74.3521C62.666 75.1937 63.3572 75.4337 64.1668 74.9921C64.2955 74.9182 64.4148 74.829 64.522 74.7265C64.4765 74.621 64.4685 74.5031 64.4994 74.3925C64.5302 74.2819 64.5981 74.1851 64.6916 74.1184C64.7543 74.07 64.8246 74.0321 64.8996 74.0065Z" fill="black"/>
<path d="M60.6431 71.6256L60.8287 71.9456H61.9072L61.4367 71.1136C61.2255 70.7392 61.3087 70.5024 61.5711 70.3552C61.8335 70.208 62.0799 70.2528 62.2911 70.6304L62.6111 71.1904L63.3887 70.7488L63.1007 70.24C62.6239 69.4016 61.9327 69.1584 61.1231 69.6192C60.9373 69.7194 60.7722 69.8541 60.6367 70.016C60.8206 70.0751 61.0133 70.1022 61.2063 70.096L60.4383 70.384C60.3821 70.5936 60.3712 70.8128 60.4065 71.027C60.4419 71.2411 60.5225 71.4452 60.6431 71.6256Z" fill="black"/>
<path d="M66.6241 68.2144C66.7267 68.1631 66.8338 68.1213 66.9441 68.0896C67.3569 67.904 67.4497 67.3088 67.4145 66.8896L66.9889 66.3616L65.8433 67.0016L66.5601 68.2624C66.5788 68.2432 66.6004 68.227 66.6241 68.2144Z" fill="black"/>
<path d="M71.5044 70.7199L72.282 70.2783L69.3092 65.0367L68.57 65.4527C68.8068 65.5103 68.9764 65.6223 68.9828 65.7951C68.7524 65.8271 68.4708 65.7951 68.2212 65.8399L69.7188 69.7215L67.8244 67.3599C67.8295 67.4122 67.8217 67.465 67.8016 67.5136C67.7815 67.5621 67.7498 67.605 67.7092 67.6383C67.6228 67.6991 67.498 67.6991 67.4308 67.7791C67.3636 67.8591 67.3732 67.9551 67.3156 68.0255C67.258 68.0959 67.1684 68.1151 67.098 68.1663C67.0276 68.2175 66.9508 68.3487 66.8708 68.4351C66.8322 68.4758 66.7837 68.5056 66.73 68.5215L68.8356 72.2335L69.5524 71.8239L67.45 68.1183L70.1508 71.4847L70.9316 71.0431L69.354 66.9695L71.5044 70.7199Z" fill="black"/>
<path d="M73.472 66.1568C73.5289 66.1852 73.5794 66.2248 73.6207 66.2732C73.6619 66.3215 73.693 66.3777 73.712 66.4384C73.7793 66.043 73.6935 65.6368 73.472 65.3024L73.0848 64.6176C72.608 63.7792 71.9456 63.552 71.12 64.0192L69.9072 64.7072L72.8832 69.952L73.6544 69.5136C73.4048 69.3568 73.1264 69.2224 72.8896 69.0528C72.7785 68.9818 72.6871 68.8838 72.624 68.768C72.5941 68.7095 72.5818 68.6436 72.5886 68.5783C72.5954 68.513 72.6211 68.451 72.6624 68.4C72.7166 68.3543 72.7827 68.3249 72.8529 68.3153C72.9232 68.3056 72.9947 68.3161 73.0592 68.3456L72.5888 67.5136L72.9792 67.2928C73.1938 67.1764 73.3805 67.0148 73.5264 66.8192C73.3632 66.56 73.0784 66.0096 73.472 66.1568ZM72.5536 66.56L72.1632 66.7808L71.1552 65.0048L71.5456 64.784C71.808 64.6368 72.0192 64.6752 72.2304 65.0496L72.6784 65.8368C72.8896 66.1952 72.816 66.3968 72.5536 66.56Z" fill="black"/>
<path d="M77.8852 67.1136L77.4628 66.3648L76.106 67.1328L74.122 63.6352L74.0324 63.7056C73.9745 63.7593 73.9041 63.7978 73.8276 63.8176C73.789 63.8262 73.7487 63.8206 73.714 63.8018C73.6792 63.783 73.6525 63.7522 73.6388 63.7152C73.6277 63.6656 73.6277 63.6143 73.6388 63.5648C73.6393 63.267 73.5452 62.9768 73.37 62.736L72.73 63.1072L75.7028 68.3488L77.8852 67.1136Z" fill="black"/>
<path d="M77.5135 65.28C77.6031 65.0464 77.8815 64.96 78.0383 64.7488C78.0523 64.7271 78.0652 64.7046 78.0767 64.6816L77.7567 64.144L78.5663 63.6864C78.5515 63.6353 78.5252 63.5882 78.4895 63.5488C78.3734 63.492 78.2493 63.4532 78.1215 63.4336C78.1018 63.3938 78.0918 63.3498 78.0925 63.3054C78.0932 63.261 78.1045 63.2174 78.1255 63.1782C78.1465 63.1391 78.1766 63.1055 78.2132 63.0804C78.2498 63.0552 78.2919 63.0391 78.3359 63.0336C78.3903 63.0336 78.4543 63.0336 78.4959 63.008C78.5251 62.9731 78.54 62.9285 78.5375 62.8832L78.4639 62.7552L77.3311 63.3952L76.5055 61.936L77.9263 61.1264L77.5007 60.3776L75.2607 61.6576L77.4623 65.5392C77.4662 65.4507 77.4834 65.3633 77.5135 65.28Z" fill="black"/>
<path d="M80.4931 65.6352L80.0675 64.8864L78.6435 65.6927L78.2179 64.96L77.6931 65.4527L77.5107 65.6287L78.2467 66.9248L80.4931 65.6352Z" fill="black"/>
<path d="M79.4339 59.5456C79.4339 59.6576 79.3539 59.7824 79.2451 59.792C79.1897 59.7913 79.1348 59.7827 79.0819 59.7664C78.9829 59.7682 78.8842 59.7585 78.7875 59.7376C78.7665 59.729 78.7471 59.7171 78.7299 59.7024L77.7891 60.2368L78.2147 60.9888L79.0755 60.4992L81.6355 64.9792L82.4579 64.512L79.8979 60.032L80.7619 59.5424L80.3363 58.7936L79.4531 59.2928C79.4371 59.376 79.4435 59.4624 79.4339 59.5456Z" fill="black"/>
<path d="M83.0276 62.72L83.6676 63.8496L84.5316 63.36C84.552 63.3033 84.5777 63.2487 84.6084 63.1968C84.7986 62.9189 85.0548 62.6924 85.354 62.5376L85.7508 62.2912L85.4884 61.824L84.0644 62.6336L83.194 61.0976L84.3268 60.4576L83.9012 59.7088L82.7684 60.3488L81.9428 58.88L83.3668 58.0736L82.9412 57.3248L80.7012 58.6048L82.3172 61.456C82.7076 61.248 82.9028 61.9968 83.0276 62.72Z" fill="black"/>
<path d="M66.4546 73.0752C66.589 73.0976 66.669 73.232 66.7746 73.3216C66.813 73.357 66.8575 73.3852 66.9058 73.4048C66.9671 73.3804 67.0269 73.3526 67.085 73.3216C67.8914 72.864 68.061 72.1344 67.5874 71.2928L67.5394 71.2096L66.4322 71.1808L66.7938 71.8208C67.005 72.1952 66.9218 72.432 66.6594 72.5792C66.397 72.7264 66.1506 72.6784 65.9394 72.304L64.3394 69.472C64.125 69.0976 64.2114 68.864 64.4738 68.7136C64.7362 68.5632 64.9794 68.6144 65.1938 68.9888L66.2786 70.9088C66.6116 70.8263 66.9532 70.7834 67.2962 70.7808L66.045 68.576C65.5714 67.7376 64.8578 67.5104 64.0482 67.968C63.2386 68.4256 63.069 69.1584 63.5458 69.9968L65.0914 72.7232C65.1891 72.9334 65.3351 73.1174 65.5175 73.2604C65.7 73.4033 65.9136 73.501 66.141 73.5456C66.1393 73.5264 66.1393 73.5072 66.141 73.488C66.1026 73.28 66.2562 73.0368 66.4546 73.0752Z" fill="black"/>
<path d="M77.504 58.0256L80.016 56.6016C79.296 56.8 78.6624 57.4016 77.92 57.3184C77.7858 57.2831 77.6447 57.2831 77.5104 57.3184C77.4265 57.3725 77.3661 57.4562 77.3412 57.5529C77.3163 57.6495 77.3287 57.7521 77.376 57.84C77.4084 57.9083 77.4517 57.971 77.504 58.0256Z" fill="black"/>
<path d="M71.2031 61.6C71.1976 61.5447 71.2087 61.4889 71.2351 61.44C71.2969 61.4615 71.3618 61.4723 71.4271 61.472L72.2943 60.9824C72.4301 60.8289 72.5849 60.6934 72.7551 60.5792C72.9195 60.4913 73.0934 60.4226 73.2735 60.3744L73.4655 60.3168L75.0655 59.4144C75.0824 59.3817 75.1052 59.3524 75.1327 59.328C75.1575 59.3115 75.1844 59.2986 75.2127 59.2896L73.5615 58.7904L73.1167 59.04L73.0687 59.392L71.1647 60.4096C70.9762 60.5273 70.7664 60.6067 70.5471 60.6432C70.4653 60.6528 70.3826 60.6528 70.3007 60.6432L67.5871 62.1824C67.6087 62.311 67.6452 62.4367 67.6959 62.5568C67.5367 62.5272 67.3853 62.4651 67.2511 62.3744L66.6943 62.6944C67.0911 62.9568 67.4815 63.2256 67.8623 63.5104L71.2031 61.6Z" fill="black"/>
<path d="M82.8195 55.0144L81.5075 54.2784L80.8867 54.6304C81.2525 55.0066 81.725 55.2613 82.2403 55.36L82.8195 55.0144Z" fill="black"/>
<path d="M89.8754 62.7616L84.9218 54.0288C84.7291 53.6911 84.4107 53.4433 84.036 53.3396C83.6612 53.2359 83.2607 53.2846 82.9218 53.4752L82.3266 53.8144L82.5538 54.0352C82.7906 54.272 83.0338 54.512 83.2546 54.7648L83.5554 54.5952C83.5971 54.5719 83.6463 54.5659 83.6923 54.5785C83.7384 54.591 83.7777 54.6212 83.8018 54.6624L88.7586 63.3984C88.7816 63.4405 88.7871 63.4899 88.774 63.536C88.7608 63.5821 88.73 63.6212 88.6882 63.6448L81.9458 67.4848C82.5282 67.52 83.117 67.4368 83.6994 67.504C83.9092 67.5304 84.1175 67.5678 84.3234 67.616L89.3218 64.7808C89.4916 64.6854 89.6407 64.5572 89.7606 64.4038C89.8805 64.2503 89.9687 64.0746 90.0202 63.8868C90.0717 63.699 90.0854 63.5028 90.0606 63.3097C90.0357 63.1165 89.9728 62.9302 89.8754 62.7616Z" fill="black"/>
<path d="M59.5202 73.8752L57.1906 69.76C57.1785 69.7392 57.1707 69.7163 57.1676 69.6925C57.1645 69.6686 57.1661 69.6445 57.1723 69.6213C57.1786 69.5981 57.1893 69.5763 57.204 69.5573C57.2187 69.5383 57.2369 69.5224 57.2578 69.5104L63.9778 65.696C63.9554 65.6448 63.9266 65.5936 63.9074 65.5424C64.0023 65.5385 64.0973 65.5492 64.189 65.5744L66.9058 64.0352C66.8162 64.0064 66.7298 63.9712 66.6434 63.9392L65.3634 63.4304L64.3394 64.0128L65.453 64.6944C65.0658 64.4576 64.2754 64.4256 63.5938 64.4352L56.6402 68.3936C56.3018 68.5857 56.0535 68.9042 55.9497 69.2791C55.8459 69.6541 55.8951 70.0549 56.0866 70.3936L58.109 73.9584C58.2018 73.9328 58.2978 73.9104 58.3906 73.8944C58.6469 73.8575 58.9062 73.8447 59.165 73.856C59.2837 73.8552 59.4023 73.8616 59.5202 73.8752Z" fill="black"/>
<path d="M67.821 75.4816C67.935 75.5837 68.0646 75.6669 68.205 75.7279C68.349 75.7919 68.541 75.9455 68.429 76.0479C67.9106 76.2847 67.2706 76.1087 66.7618 76.3679C66.4834 76.5023 66.2146 76.7679 65.917 76.6879C66.277 76.9065 66.6008 77.1796 66.877 77.4975L79.5842 70.2912C79.5842 70.24 79.6002 70.1888 79.6098 70.1344C79.6101 70.0336 79.6334 69.9343 79.6778 69.8439C79.7223 69.7536 79.7868 69.6745 79.8664 69.6128C79.946 69.5511 80.0386 69.5084 80.1372 69.4878C80.2358 69.4673 80.3378 69.4695 80.4354 69.4944C80.6002 69.4871 80.7652 69.5044 80.925 69.5456L82.509 68.6464C82.2916 68.2718 82.0341 67.922 81.741 67.6031L67.821 75.4816Z" fill="black"/>
<path d="M65.7636 77.5968C65.4571 77.4974 65.1748 77.335 64.9348 77.12L62.4004 78.56C62.3798 78.572 62.3571 78.5797 62.3336 78.5828C62.31 78.5859 62.286 78.5843 62.2631 78.578C62.2402 78.5718 62.2187 78.561 62.2 78.5464C62.1812 78.5318 62.1656 78.5136 62.154 78.4928L59.914 74.5664C59.6993 74.4922 59.471 74.466 59.2452 74.4896C58.986 74.5408 58.7588 74.8416 58.8996 75.0624C59.0319 75.0658 59.1609 75.1044 59.2734 75.1741C59.3858 75.2438 59.4777 75.3422 59.5396 75.4592C59.4016 75.569 59.2499 75.6604 59.0884 75.7312L61.0084 79.1264C61.1038 79.2979 61.2325 79.4486 61.3869 79.5696C61.5414 79.6906 61.7185 79.7795 61.9078 79.8311C62.0971 79.8827 62.2949 79.8959 62.4893 79.8699C62.6838 79.844 62.8712 79.7794 63.0404 79.68L66.362 77.7952L66.3236 77.7728C66.1402 77.7041 65.9533 77.6454 65.7636 77.5968Z" fill="black"/>
</g>
<path opacity="0.3" d="M90.1826 80.96L89.1042 74.7008C89.0566 74.4228 89.0657 74.1379 89.131 73.8635C89.1963 73.589 89.3164 73.3306 89.484 73.1037C89.6517 72.8768 89.8636 72.6862 90.1068 72.5433C90.35 72.4004 90.6196 72.3081 90.8994 72.272L93.3154 71.952C93.3154 71.952 92.509 70.3168 95.1042 65.552C97.6994 60.7872 110.176 48.1312 119.635 69.392C129.095 90.6528 137.738 133.978 137.738 133.978C137.738 133.978 112.205 104.243 111.392 102.72C110.579 101.197 102.807 102.109 101.011 98.0224C99.2162 93.936 95.4466 82.2752 95.4466 82.2752L92.5282 82.6752C91.9914 82.7479 91.4473 82.6098 91.01 82.2901C90.5727 81.9703 90.2762 81.4936 90.1826 80.96Z" fill="black" fill-opacity="0.7"/>
<path d="M112.685 66.5985L107.786 67.4881L100.976 68.7265L92.0578 70.3489C91.8868 70.3803 91.7112 70.3776 91.5412 70.341C91.3711 70.3044 91.21 70.2346 91.067 70.1356C90.924 70.0366 90.802 69.9104 90.7079 69.7641C90.6138 69.6178 90.5495 69.4545 90.5186 69.2833L88.5602 58.5153C88.4986 58.17 88.576 57.8144 88.7757 57.526C88.9753 57.2376 89.2809 57.0399 89.6258 56.9761L94.813 56.0161L102.359 54.6465L110.253 53.2097C110.424 53.1783 110.6 53.181 110.77 53.2176C110.94 53.2542 111.101 53.324 111.244 53.423C111.387 53.522 111.509 53.6482 111.603 53.7945C111.697 53.9407 111.761 54.1041 111.792 54.2753L113.751 65.0433C113.784 65.2155 113.783 65.3927 113.748 65.5646C113.712 65.7365 113.643 65.8995 113.544 66.0443C113.445 66.1891 113.318 66.3126 113.17 66.4078C113.023 66.5029 112.858 66.5678 112.685 66.5985Z" fill="#71CB90"/>
<mask id="mask0_162_297" style="mask-type:luminance" maskUnits="userSpaceOnUse" x="88" y="53" width="26" height="18">
<path d="M112.685 66.5985L107.786 67.4881L100.976 68.7265L92.0578 70.3489C91.8868 70.3803 91.7112 70.3776 91.5412 70.341C91.3711 70.3044 91.21 70.2346 91.067 70.1356C90.924 70.0366 90.802 69.9104 90.7079 69.7641C90.6138 69.6178 90.5495 69.4545 90.5186 69.2833L88.5602 58.5153C88.4986 58.17 88.576 57.8144 88.7757 57.526C88.9753 57.2376 89.2809 57.0399 89.6258 56.9761L94.813 56.0161L102.359 54.6465L110.253 53.2097C110.424 53.1783 110.6 53.181 110.77 53.2176C110.94 53.2542 111.101 53.324 111.244 53.423C111.387 53.522 111.509 53.6482 111.603 53.7945C111.697 53.9407 111.761 54.1041 111.792 54.2753L113.751 65.0433C113.784 65.2155 113.783 65.3927 113.748 65.5646C113.712 65.7365 113.643 65.8995 113.544 66.0443C113.445 66.1891 113.318 66.3126 113.17 66.4078C113.023 66.5029 112.858 66.5678 112.685 66.5985Z" fill="white"/>
</mask>
<g mask="url(#mask0_162_297)">
<path opacity="0.3" d="M109.219 59.4497L107.786 67.4881L100.976 68.7265C99.0049 67.8593 95.7537 66.3489 95.1041 65.5265C94.3297 64.5665 94.4385 58.9089 94.8129 56.0161L102.358 54.6465C105.018 56.4801 109.219 59.4497 109.219 59.4497Z" fill="black" fill-opacity="0.7"/>
<path opacity="0.3" d="M93.4114 70.1025L92.0578 70.3489C91.8868 70.3803 91.7112 70.3776 91.5412 70.341C91.3711 70.3044 91.21 70.2346 91.067 70.1356C90.924 70.0367 90.802 69.9104 90.7079 69.7641C90.6138 69.6179 90.5495 69.4545 90.5186 69.2833L88.5602 58.5153C88.4986 58.1701 88.576 57.8144 88.7757 57.526C88.9753 57.2377 89.2809 57.04 89.6258 56.9761L90.9762 56.7297C90.6315 56.7935 90.3262 56.9914 90.127 57.2799C89.9279 57.5684 89.8512 57.924 89.9138 58.2689L91.8722 69.0369C91.9031 69.2081 91.9674 69.3715 92.0615 69.5177C92.1556 69.664 92.2776 69.7903 92.4206 69.8893C92.5636 69.9882 92.7247 70.058 92.8948 70.0946C93.0648 70.1312 93.2404 70.1339 93.4114 70.1025Z" fill="black" fill-opacity="0.7"/>
</g>
<path d="M112.685 66.5985L107.786 67.4881L100.976 68.7265L92.0578 70.3489C91.8868 70.3803 91.7112 70.3776 91.5412 70.341C91.3711 70.3044 91.21 70.2346 91.067 70.1356C90.924 70.0366 90.802 69.9104 90.7079 69.7641C90.6138 69.6178 90.5495 69.4545 90.5186 69.2833L88.5602 58.5153C88.4986 58.17 88.576 57.8144 88.7757 57.526C88.9753 57.2376 89.2809 57.0399 89.6258 56.9761L94.813 56.0161L102.359 54.6465L110.253 53.2097C110.424 53.1783 110.6 53.181 110.77 53.2176C110.94 53.2542 111.101 53.324 111.244 53.423C111.387 53.522 111.509 53.6482 111.603 53.7945C111.697 53.9407 111.761 54.1041 111.792 54.2753L113.751 65.0433C113.784 65.2155 113.783 65.3927 113.748 65.5646C113.712 65.7365 113.643 65.8995 113.544 66.0443C113.445 66.1891 113.318 66.3126 113.17 66.4078C113.023 66.5029 112.858 66.5678 112.685 66.5985Z" stroke="#263238" stroke-linecap="round" stroke-linejoin="round"/>
<path d="M111.23 52.6407L90.686 56.4141C89.969 56.5458 89.4945 57.2339 89.6262 57.9509L91.5955 68.6729C91.7272 69.3899 92.4152 69.8644 93.1323 69.7327L113.676 65.9593C114.393 65.8276 114.868 65.1396 114.736 64.4226L112.767 53.7006C112.635 52.9836 111.947 52.509 111.23 52.6407Z" stroke="#263238" stroke-width="0.996394" stroke-linecap="round" stroke-linejoin="round"/>
<path d="M110.655 53.9357L91.2952 57.4539C90.9474 57.5171 90.7168 57.8503 90.78 58.198L92.7082 68.8083C92.7714 69.156 93.1045 69.3867 93.4523 69.3235L112.812 65.8053C113.16 65.7421 113.39 65.4089 113.327 65.0611L111.399 54.4509C111.336 54.1032 111.003 53.8725 110.655 53.9357Z" stroke="#263238" stroke-linecap="round" stroke-linejoin="round"/>
<path d="M114.039 66.3521L112.695 66.5953C113.038 66.5308 113.342 66.333 113.539 66.0452C113.737 65.7573 113.813 65.4029 113.751 65.0593L111.792 54.2913C111.761 54.1201 111.697 53.9567 111.603 53.8105C111.509 53.6642 111.387 53.538 111.244 53.439C111.101 53.34 110.94 53.2702 110.77 53.2336C110.6 53.197 110.424 53.1943 110.253 53.2257L111.607 52.9793C111.952 52.9177 112.307 52.9951 112.596 53.1948C112.884 53.3944 113.082 53.7 113.146 54.0449L115.104 64.8129C115.166 65.1582 115.088 65.5138 114.889 65.8022C114.689 66.0906 114.383 66.2883 114.039 66.3521Z" stroke="#263238" stroke-linecap="round" stroke-linejoin="round"/>
<path d="M152.96 100.845L139.709 136.39C139.709 136.39 134.167 125.83 129.047 116.058C124.957 108.243 121.136 100.915 120.621 99.8368C119.466 97.408 115.52 92.32 115.52 92.32C115.52 92.32 111.472 90.0032 109.62 85.968C107.767 81.9328 105.728 67.4976 105.728 67.4976C105.728 67.4976 100.407 65.4944 99.1363 64.6176C97.8659 63.7408 96.7075 55.6384 96.7075 54.7136C96.7075 53.7888 97.9875 51.936 97.9875 51.936C97.9875 51.936 97.7027 50.5792 99.3283 49.2096C99.8597 48.7734 100.449 48.4127 101.079 48.1376H101.111C101.111 48.1376 100.9 45.0752 102.493 44.1824C102.569 44.1394 102.648 44.1019 102.73 44.0704C104.151 43.5232 108.81 42.816 108.81 42.816C109.469 42.2373 110.235 41.7946 111.066 41.5136C111.892 41.2864 116.423 42.3392 118.954 42.9632C119.972 43.2128 120.666 43.392 120.666 43.392C120.666 43.392 124.948 43.5872 125.757 44.0704C126.322 44.4407 126.838 44.8804 127.293 45.3792L127.373 45.472C127.373 45.472 131.191 46.2656 132 47.664C132.81 49.0624 133.156 56 132.58 60.5088C132.004 65.0176 133.037 72.6688 133.037 72.6688C133.037 72.6688 134.231 78.5792 135.156 80.8224C136.08 83.0656 152.96 100.845 152.96 100.845Z" fill="url(#paint0_linear_162_297)"/>
<path opacity="0.4" d="M129.047 116.058C124.957 108.243 121.136 100.915 120.621 99.8369C119.466 97.4081 115.52 92.3201 115.52 92.3201C115.52 92.3201 111.472 90.0033 109.62 85.9681C107.767 81.9329 105.728 67.4977 105.728 67.4977C105.728 67.4977 100.407 65.4945 99.1363 64.6177C97.8659 63.7409 96.7075 55.6385 96.7075 54.7137C96.7075 53.7889 97.9875 51.9361 97.9875 51.9361C97.9875 51.9361 97.7027 50.5793 99.3283 49.2097C99.3283 49.5745 99.3283 50.1889 99.3283 51.1553C99.2899 52.9889 101.45 64.0449 101.984 63.7089C102.519 63.3729 103.344 62.5633 103.127 61.8497C103.127 61.8497 102.08 57.5585 101.092 48.1377H101.124C101.124 48.1377 100.912 45.0753 102.506 44.1825C102.232 44.8456 102.056 45.5453 101.984 46.2593C101.949 47.7505 103.722 60.5281 104.416 60.8513C105.111 61.1745 106.871 59.4721 106.871 59.4721C106.871 59.4721 106.269 55.8465 106.484 54.3009C106.484 54.3009 111.837 57.5649 111.997 61.2705C112.013 61.6769 113.04 67.4849 113.04 67.4849C113.04 67.4849 108.436 76.2529 113.136 84.2529C113.136 84.2529 110.746 82.8193 110.176 80.5409C110.176 80.5409 109.482 87.2417 114.42 90.7809C114.42 90.7809 117.962 87.3025 121.46 86.8609C121.46 86.8609 121.524 87.0913 119.181 88.9377C116.839 90.7841 116.522 91.6065 116.522 91.6065C116.522 91.6065 119.056 89.0465 121.082 88.9377C121.082 88.9377 118.992 91.3537 119.056 91.8593C119.12 92.3649 125.031 102.47 127.181 109.52C128.058 112.464 128.656 114.589 129.047 116.058Z" fill="#71CB90"/>
<path opacity="0.4" d="M112.452 48.9921C112.452 48.9921 114.157 50.2721 114.663 48.9921C114.953 48.3072 115.138 47.5821 115.21 46.8417C115.21 46.8417 115.866 46.5409 116.49 48.1217C117.114 49.7025 123.37 50.1057 124.836 50.9153C126.301 51.7249 126.884 50.9153 126.884 50.9153C127.225 51.1959 127.459 51.5856 127.547 52.0187C127.634 52.4518 127.569 52.9019 127.364 53.2929C126.653 54.7617 128.666 54.8929 129.447 53.8113C130.228 52.7297 129.623 56.9057 127.693 57.3313C127.693 57.3313 127.748 59.1553 126.506 60.4065H127.559C127.559 60.4065 124.756 62.6305 124.01 62.7521C123.264 62.8737 126.784 64.1185 126.132 64.3809C125.479 64.6433 123.629 64.6209 123.629 64.6209C123.629 64.6209 124.826 65.4497 124.836 65.9969C124.845 66.5441 124.269 66.9569 124.01 66.4993C123.751 66.0417 121.684 59.4881 120.653 57.0657C119.623 54.6433 115.367 52.7265 112.452 48.9921Z" fill="#71CB90"/>
<path opacity="0.4" d="M127.29 45.3568C123.699 44.3744 118.883 42.976 118.883 42.976L118.95 42.9408C119.968 43.1904 120.663 43.3696 120.663 43.3696C120.663 43.3696 124.944 43.5648 125.754 44.048C126.318 44.4183 126.834 44.858 127.29 45.3568Z" fill="#71CB90"/>
<path d="M122.24 51.0049C119.117 50.3649 116.887 53.0337 116.887 53.0337C116.887 53.0337 119.991 55.8433 120.679 57.0497C121.367 58.2561 122.509 62.3233 122.509 62.3233C123.818 62.5345 126.231 61.1841 126.81 57.6001C127.389 54.0161 125.348 51.6417 122.24 51.0049Z" fill="#71CB90"/>
<path d="M139.709 136.39C139.709 136.39 121.789 102.266 120.621 99.8368C119.453 97.408 115.52 92.32 115.52 92.32C115.52 92.32 111.472 90.0032 109.62 85.968C107.767 81.9328 105.728 67.4976 105.728 67.4976C105.728 67.4976 100.407 65.4944 99.1363 64.6176C97.8659 63.7408 96.7075 55.6384 96.7075 54.7136C96.7075 53.7888 97.9875 51.9361 97.9875 51.9361C97.9875 51.9361 97.5267 49.7441 101.111 48.1217C101.111 48.1217 100.88 44.7649 102.73 44.0545C104.151 43.5073 108.81 42.8001 108.81 42.8001C109.469 42.2213 110.235 41.7786 111.066 41.4976C112.221 41.1776 120.666 43.3761 120.666 43.3761C120.666 43.3761 124.948 43.5713 125.757 44.0545C126.349 44.445 126.888 44.9108 127.36 45.4401C127.36 45.4401 131.178 46.2337 131.988 47.6321C132.797 49.0305 133.143 55.9681 132.567 60.4769C131.991 64.9857 133.024 72.6369 133.024 72.6369C133.024 72.6369 134.218 78.5473 135.143 80.7905C136.068 83.0337 152.96 100.845 152.96 100.845" stroke="#263238" stroke-linecap="round" stroke-linejoin="round"/>
<path d="M124.538 67.0272C124.538 67.0272 123.728 66.8544 122.688 63.0368C121.648 59.2192 121.373 57.4336 119.216 55.1712C117.687 53.5712 114.186 50.9568 112.452 48.992C110.717 47.0272 108.8 45.44 107.303 46.656C106.106 47.616 105.325 50.1088 106.378 53.9552C107.732 58.896 112 61.248 112 61.248L113.044 67.4624C113.044 67.4624 108.516 76.5312 113.62 85.0912" stroke="#263238" stroke-linecap="round" stroke-linejoin="round"/>
<path d="M116.871 53.0336C116.871 53.0336 119.111 50.368 122.224 51.0048C125.338 51.6416 127.36 54.0128 126.794 57.6C126.227 61.1872 123.802 62.5344 122.493 62.3232" stroke="#263238" stroke-linecap="round" stroke-linejoin="round"/>
<path d="M108.8 42.7937C108.333 43.9693 107.973 45.185 107.725 46.4257" stroke="#263238" stroke-linecap="round" stroke-linejoin="round"/>
<path d="M106.906 55.3248C106.906 55.3248 107.175 59.2768 107.731 60.4896C108.288 61.7024 109.213 62.688 109.616 64.2496C110.019 65.8112 110.08 68.24 110.195 68.5888C110.311 68.9376 110.979 69.0272 110.979 69.0272C111.939 69.0496 112.327 68.5504 112.88 67.7888" stroke="#263238" stroke-linecap="round" stroke-linejoin="round"/>
<path d="M101.12 48.1152C101.12 48.1152 101.987 56.5568 102.682 60.144C103.376 63.7312 104.602 64.2496 106.615 65.408C108.627 66.5664 109.738 68.928 109.914 69.2832C110.09 69.6384 110.749 69.6768 110.749 69.6768C111.136 69.6446 111.509 69.5162 111.835 69.3033C112.16 69.0904 112.427 68.7998 112.611 68.4576" stroke="#263238" stroke-linecap="round" stroke-linejoin="round"/>
<path d="M97.9907 51.9297C97.7731 52.2657 99.6291 60.8385 100.596 63.3249C101.562 65.8113 101.671 66.2049 104.228 66.9089C106.784 67.6129 108.727 68.7841 109.418 68.3713" stroke="#263238" stroke-linecap="round" stroke-linejoin="round"/>
<path d="M115.748 47.1873C115.748 47.1873 117.076 50.3681 116.199 52.4609" stroke="#263238" stroke-linecap="round" stroke-linejoin="round"/>
<path d="M120.663 43.3696C122.839 44.23 125.078 44.9222 127.36 45.44" stroke="#263238" stroke-linecap="round" stroke-linejoin="round"/>
<path d="M129.456 54.3617C129.456 54.3617 128.438 56.2209 126.896 56.6209" stroke="#263238" stroke-linecap="round" stroke-linejoin="round"/>
<path d="M126.893 52.3361C126.893 52.3361 126.528 53.2961 126.141 53.5617" stroke="#263238" stroke-linecap="round" stroke-linejoin="round"/>
<path d="M128.173 59.9712C128.173 59.9712 125.859 61.7216 123.639 62.176" stroke="#263238" stroke-linecap="round" stroke-linejoin="round"/>
<path d="M122.688 63.04C122.688 63.04 123.648 64.2528 126.141 64.368" stroke="#263238" stroke-linecap="round" stroke-linejoin="round"/>
<path d="M115.2 57.7313C115.2 57.7313 117.466 55.5553 118.759 55.8561" stroke="#263238" stroke-linecap="round" stroke-linejoin="round"/>
<path d="M119.635 58.1729C119.635 58.1729 117.92 59.4529 117.606 59.4529" stroke="#263238" stroke-linecap="round" stroke-linejoin="round"/>
<path d="M101.975 64.9601C101.975 64.9601 102.544 65.0657 102.989 64.3777" stroke="#263238" stroke-linecap="round" stroke-linejoin="round"/>
<path d="M104 61.8433C104 61.8433 105.376 60.9921 106.275 60.8289" stroke="#263238" stroke-linecap="round" stroke-linejoin="round"/>
<path d="M116.122 90.7073C116.407 90.4545 119.066 88.3041 120.711 87.5425" stroke="#263238" stroke-linecap="round" stroke-linejoin="round"/>
<path d="M119.571 89.6896C119.382 89.632 117.872 91.2128 117.075 91.8464" stroke="#263238" stroke-linecap="round" stroke-linejoin="round"/>
<path d="M120.32 94.3776C120.32 94.3776 125.386 103.978 126.525 107.818" stroke="#263238" stroke-linecap="round" stroke-linejoin="round"/>
<path d="M135.155 80.8032C135.584 83.1616 136.976 84.8992 137.738 85.84" stroke="#263238" stroke-linecap="round" stroke-linejoin="round"/>
<path opacity="0.4" d="M119.188 51.9296C118.452 52.384 119.226 53.8688 119.636 54.6272C120.045 55.3856 121.876 56.592 122.256 57.7312C122.637 58.8704 125.044 58.8384 125.776 57.7312C126.509 56.624 126.416 54.4128 124.42 52.7296C122.423 51.0464 120.234 51.2896 119.188 51.9296Z" fill="white"/>
<defs>
<linearGradient id="paint0_linear_162_297" x1="124.8" y1="91.52" x2="140.48" y2="117.12" gradientUnits="userSpaceOnUse">
<stop stop-color="white"/>
<stop offset="1" stop-color="white" stop-opacity="0"/>
</linearGradient>
</defs>
</svg>
