<svg width="114" height="36" viewBox="0 0 114 36" fill="none" xmlns="http://www.w3.org/2000/svg">
<path d="M46.1793 9.152V12.44H41.7153V26H37.6113V12.44H33.1473V9.152H46.1793ZM52.343 14.84C52.823 14.104 53.423 13.528 54.143 13.112C54.863 12.68 55.663 12.464 56.543 12.464V16.808H55.415C54.391 16.808 53.623 17.032 53.111 17.48C52.599 17.912 52.343 18.68 52.343 19.784V26H48.239V12.608H52.343V14.84ZM66.6646 12.464C68.2326 12.464 69.4806 12.976 70.4086 14C71.3526 15.008 71.8246 16.4 71.8246 18.176V26H67.7446V18.728C67.7446 17.832 67.5126 17.136 67.0486 16.64C66.5846 16.144 65.9606 15.896 65.1766 15.896C64.3926 15.896 63.7686 16.144 63.3046 16.64C62.8406 17.136 62.6086 17.832 62.6086 18.728V26H58.5046V12.608H62.6086V14.384C63.0246 13.792 63.5846 13.328 64.2886 12.992C64.9926 12.64 65.7846 12.464 66.6646 12.464ZM80.1245 26.192C78.9565 26.192 77.9165 25.992 77.0045 25.592C76.0925 25.192 75.3725 24.648 74.8445 23.96C74.3165 23.256 74.0205 22.472 73.9565 21.608H78.0125C78.0605 22.072 78.2765 22.448 78.6605 22.736C79.0445 23.024 79.5165 23.168 80.0765 23.168C80.5885 23.168 80.9805 23.072 81.2525 22.88C81.5405 22.672 81.6845 22.408 81.6845 22.088C81.6845 21.704 81.4845 21.424 81.0845 21.248C80.6845 21.056 80.0365 20.848 79.1405 20.624C78.1805 20.4 77.3805 20.168 76.7405 19.928C76.1005 19.672 75.5485 19.28 75.0845 18.752C74.6205 18.208 74.3885 17.48 74.3885 16.568C74.3885 15.8 74.5965 15.104 75.0125 14.48C75.4445 13.84 76.0685 13.336 76.8845 12.968C77.7165 12.6 78.7005 12.416 79.8365 12.416C81.5165 12.416 82.8365 12.832 83.7965 13.664C84.7725 14.496 85.3325 15.6 85.4765 16.976H81.6845C81.6205 16.512 81.4125 16.144 81.0605 15.872C80.7245 15.6 80.2765 15.464 79.7165 15.464C79.2365 15.464 78.8685 15.56 78.6125 15.752C78.3565 15.928 78.2285 16.176 78.2285 16.496C78.2285 16.88 78.4285 17.168 78.8285 17.36C79.2445 17.552 79.8845 17.744 80.7485 17.936C81.7405 18.192 82.5485 18.448 83.1725 18.704C83.7965 18.944 84.3405 19.344 84.8045 19.904C85.2845 20.448 85.5325 21.184 85.5485 22.112C85.5485 22.896 85.3245 23.6 84.8765 24.224C84.4445 24.832 83.8125 25.312 82.9805 25.664C82.1645 26.016 81.2125 26.192 80.1245 26.192ZM94.7793 16.016H92.5713V26H88.4673V16.016H86.9793V12.608H88.4673V12.224C88.4673 10.576 88.9393 9.328 89.8833 8.48C90.8273 7.616 92.2113 7.184 94.0353 7.184C94.3393 7.184 94.5633 7.192 94.7073 7.208V10.688C93.9233 10.64 93.3713 10.752 93.0513 11.024C92.7313 11.296 92.5713 11.784 92.5713 12.488V12.608H94.7793V16.016ZM100.812 14.84C101.292 14.104 101.892 13.528 102.612 13.112C103.332 12.68 104.132 12.464 105.012 12.464V16.808H103.884C102.86 16.808 102.092 17.032 101.58 17.48C101.068 17.912 100.812 18.68 100.812 19.784V26H96.7077V12.608H100.812V14.84Z" fill="#0F212D"/>
<path d="M108.893 26.192C108.173 26.192 107.581 25.984 107.117 25.568C106.669 25.136 106.445 24.608 106.445 23.984C106.445 23.344 106.669 22.808 107.117 22.376C107.581 21.944 108.173 21.728 108.893 21.728C109.597 21.728 110.173 21.944 110.621 22.376C111.085 22.808 111.317 23.344 111.317 23.984C111.317 24.608 111.085 25.136 110.621 25.568C110.173 25.984 109.597 26.192 108.893 26.192Z" fill="#71CB90"/>
<path d="M2.30552 15.3156C1.77929 15.1414 1.77515 14.8603 2.31635 14.6812L21.5372 8.31913C22.0693 8.14297 22.3746 8.43878 22.2255 8.95706L16.7338 28.0433C16.5818 28.5718 16.2749 28.5901 16.0501 28.0877L12.4303 20.0002L18.4726 12.0002L10.4162 18.0002L2.30552 15.3156Z" fill="#0F212D"/>
</svg>
