<svg width="113" height="36" viewBox="0 0 113 36" fill="none" xmlns="http://www.w3.org/2000/svg">
<path d="M45.8336 9.152V12.44H41.3696V26H37.2656V12.44H32.8016V9.152H45.8336ZM51.9973 14.84C52.4773 14.104 53.0773 13.528 53.7973 13.112C54.5173 12.68 55.3173 12.464 56.1973 12.464V16.808H55.0693C54.0453 16.808 53.2773 17.032 52.7653 17.48C52.2533 17.912 51.9973 18.68 51.9973 19.784V26H47.8933V12.608H51.9973V14.84ZM66.3189 12.464C67.8869 12.464 69.1349 12.976 70.0629 14C71.0069 15.008 71.4789 16.4 71.4789 18.176V26H67.3989V18.728C67.3989 17.832 67.1669 17.136 66.7029 16.64C66.2389 16.144 65.6149 15.896 64.8309 15.896C64.0469 15.896 63.4229 16.144 62.9589 16.64C62.4949 17.136 62.2629 17.832 62.2629 18.728V26H58.1589V12.608H62.2629V14.384C62.6789 13.792 63.2389 13.328 63.9429 12.992C64.6469 12.64 65.4389 12.464 66.3189 12.464ZM79.7788 26.192C78.6108 26.192 77.5708 25.992 76.6588 25.592C75.7468 25.192 75.0268 24.648 74.4988 23.96C73.9708 23.256 73.6748 22.472 73.6108 21.608H77.6668C77.7148 22.072 77.9308 22.448 78.3148 22.736C78.6988 23.024 79.1708 23.168 79.7308 23.168C80.2428 23.168 80.6348 23.072 80.9068 22.88C81.1948 22.672 81.3388 22.408 81.3388 22.088C81.3388 21.704 81.1388 21.424 80.7388 21.248C80.3388 21.056 79.6908 20.848 78.7948 20.624C77.8348 20.4 77.0348 20.168 76.3948 19.928C75.7548 19.672 75.2028 19.28 74.7388 18.752C74.2748 18.208 74.0428 17.48 74.0428 16.568C74.0428 15.8 74.2508 15.104 74.6668 14.48C75.0988 13.84 75.7228 13.336 76.5388 12.968C77.3708 12.6 78.3548 12.416 79.4908 12.416C81.1708 12.416 82.4908 12.832 83.4508 13.664C84.4268 14.496 84.9868 15.6 85.1308 16.976H81.3388C81.2748 16.512 81.0668 16.144 80.7148 15.872C80.3788 15.6 79.9308 15.464 79.3708 15.464C78.8908 15.464 78.5228 15.56 78.2668 15.752C78.0108 15.928 77.8828 16.176 77.8828 16.496C77.8828 16.88 78.0828 17.168 78.4828 17.36C78.8988 17.552 79.5388 17.744 80.4028 17.936C81.3948 18.192 82.2028 18.448 82.8268 18.704C83.4508 18.944 83.9948 19.344 84.4588 19.904C84.9388 20.448 85.1868 21.184 85.2028 22.112C85.2028 22.896 84.9788 23.6 84.5308 24.224C84.0988 24.832 83.4668 25.312 82.6348 25.664C81.8188 26.016 80.8668 26.192 79.7788 26.192ZM94.4336 16.016H92.2256V26H88.1216V16.016H86.6336V12.608H88.1216V12.224C88.1216 10.576 88.5936 9.328 89.5376 8.48C90.4816 7.616 91.8656 7.184 93.6896 7.184C93.9936 7.184 94.2176 7.192 94.3616 7.208V10.688C93.5776 10.64 93.0256 10.752 92.7056 11.024C92.3856 11.296 92.2256 11.784 92.2256 12.488V12.608H94.4336V16.016ZM100.466 14.84C100.946 14.104 101.546 13.528 102.266 13.112C102.986 12.68 103.786 12.464 104.666 12.464V16.808H103.538C102.514 16.808 101.746 17.032 101.234 17.48C100.722 17.912 100.466 18.68 100.466 19.784V26H96.362V12.608H100.466V14.84Z" fill="white"/>
<path d="M108.548 26.192C107.828 26.192 107.236 25.984 106.772 25.568C106.324 25.136 106.1 24.608 106.1 23.984C106.1 23.344 106.324 22.808 106.772 22.376C107.236 21.944 107.828 21.728 108.548 21.728C109.252 21.728 109.828 21.944 110.276 22.376C110.74 22.808 110.972 23.344 110.972 23.984C110.972 24.608 110.74 25.136 110.276 25.568C109.828 25.984 109.252 26.192 108.548 26.192Z" fill="#71CB90"/>
<path d="M1.95982 15.3156C1.43359 15.1414 1.42944 14.8603 1.97064 14.6812L21.1915 8.31913C21.7236 8.14297 22.0288 8.43878 21.8798 8.95706L16.3881 28.0433C16.2361 28.5718 15.9292 28.5901 15.7044 28.0877L12.0846 20.0002L18.1269 12.0002L10.0705 18.0002L1.95982 15.3156Z" fill="white"/>
</svg>
